<?xml version="1.0" standalone="no"?>
<!DOCTYPE svg PUBLIC "-//W3C//DTD SVG 20010904//EN"
 "http://www.w3.org/TR/2001/REC-SVG-20010904/DTD/svg10.dtd">
<svg version="1.0" xmlns="http://www.w3.org/2000/svg"
 width="870.000000pt" height="870.000000pt" viewBox="0 0 870.000000 870.000000"
 preserveAspectRatio="xMidYMid meet">
<metadata>
Created by potrace 1.14, written by Peter Selinger 2001-2017
</metadata>
<g transform="translate(0.000000,870.000000) scale(0.100000,-0.100000)"
fill="#000000" stroke="none">
<path d="M0 4350 l0 -4350 1390 0 1391 0 -7 46 c-5 40 -4 46 15 51 11 3 30 21
42 39 17 28 27 34 57 35 33 1 35 2 12 9 -22 7 -22 8 -5 10 50 6 73 5 69 -2 -3
-4 4 -8 16 -8 12 0 38 -16 58 -34 43 -41 52 -34 52 41 0 32 5 53 12 56 8 4 7
6 -3 6 -19 1 -31 35 -17 49 5 5 11 22 13 38 2 16 4 30 6 32 2 3 6 19 8 33 0 5
5 8 10 5 5 -3 20 6 35 21 22 22 25 31 20 62 -4 20 -7 41 -7 48 0 6 -6 9 -14 6
-7 -3 -13 0 -13 7 0 6 -5 8 -11 4 -8 -4 -9 1 -5 17 3 13 3 18 0 12 -9 -20 -32
-15 -39 7 -10 31 -47 65 -74 68 -28 3 -58 -25 -53 -50 4 -19 -13 -25 -23 -8
-4 6 -15 8 -24 5 -17 -5 -38 12 -94 76 -10 11 -20 34 -21 51 -1 17 -10 36 -20
43 -10 8 -13 16 -7 19 6 4 8 13 5 21 -3 7 4 18 15 24 13 7 18 17 14 28 -5 12
-3 14 7 8 10 -6 11 -2 6 20 -5 19 -2 33 11 49 11 12 12 16 3 9 -12 -9 -17 -7
-27 13 -7 16 -7 22 -1 17 7 -3 8 -1 4 5 -4 7 -16 12 -27 12 -17 0 -19 4 -13
23 15 47 22 63 38 76 22 18 19 97 -4 119 -31 29 -27 46 19 90 30 28 39 42 28
42 -10 0 -17 7 -17 16 0 14 3 14 15 4 13 -11 18 -11 28 0 9 10 9 11 -1 6 -7
-4 -19 -2 -27 4 -8 7 -15 9 -15 5 0 -4 -8 1 -17 12 -10 10 -15 14 -10 9 11
-16 8 -26 -9 -26 -8 0 -13 4 -10 8 2 4 0 14 -6 22 -8 12 -9 11 -4 -4 5 -15 2
-17 -16 -13 -21 5 -21 5 -6 -7 10 -7 15 -15 12 -18 -7 -7 -70 53 -66 64 1 4
-8 8 -19 8 -19 0 -20 2 -8 16 12 15 11 16 -8 10 -16 -5 -25 -2 -33 14 -6 12
-9 24 -7 27 3 2 8 -5 12 -16 7 -23 35 -17 34 8 0 10 -2 11 -6 4 -9 -24 -22
-13 -34 28 -10 31 -15 37 -21 25 -13 -23 -28 -20 -28 5 0 19 -2 20 -17 8 -15
-12 -16 -12 -10 4 4 11 3 16 -3 12 -5 -3 -23 8 -40 25 -16 17 -30 26 -30 20 0
-5 -7 -10 -15 -10 -8 0 -15 -9 -15 -19 0 -11 -6 -22 -13 -25 -6 -3 -2 -3 10
-1 12 3 24 1 28 -5 9 -15 2 -21 -32 -25 -22 -3 -31 2 -38 18 -8 16 -20 23 -50
25 -39 3 -75 25 -75 47 0 6 -13 25 -29 41 -16 15 -26 34 -24 41 3 7 1 13 -5
13 -16 0 -23 30 -12 51 6 10 21 19 33 19 12 0 17 4 12 8 -6 4 -8 22 -4 42 l6
35 2 -32 c0 -18 6 -33 11 -33 6 0 10 5 10 11 0 8 4 8 14 0 12 -10 15 -4 18 34
3 39 1 43 -9 28 -7 -9 -13 -22 -14 -27 0 -6 -5 2 -9 18 -8 26 -5 33 33 67 38
36 42 37 59 22 12 -11 18 -12 18 -4 0 7 4 9 10 6 5 -3 7 0 4 8 -9 24 17 32 33
11 8 -10 19 -19 26 -19 7 0 13 -15 13 -35 2 -30 0 -32 -10 -16 -6 10 -18 26
-26 35 -8 9 -12 12 -7 7 10 -14 9 -46 -2 -46 -5 0 -11 5 -13 12 -3 9 -6 9 -12
0 -4 -7 -2 -12 4 -12 6 0 9 -4 6 -8 -2 -4 4 -8 14 -8 10 0 16 4 13 9 -3 5 0 7
8 5 8 -3 13 -11 11 -17 -1 -6 4 -10 10 -9 7 2 14 -7 16 -19 4 -29 22 -30 22
-2 0 16 4 19 22 14 16 -6 20 -4 15 8 -8 20 15 28 31 11 10 -12 10 -14 -3 -14
-8 0 -15 -6 -15 -14 0 -8 -7 -16 -15 -20 -18 -7 -20 -46 -2 -46 8 0 7 -4 -3
-10 -11 -8 -3 -9 28 -6 36 4 43 2 38 -10 -4 -11 -1 -14 13 -9 12 3 21 0 25
-10 3 -9 10 -13 16 -10 5 3 10 2 10 -2 0 -5 19 -10 43 -12 37 -3 67 -6 90 -10
4 0 7 -6 7 -12 0 -8 -5 -7 -15 1 -13 10 -18 11 -28 1 -9 -10 -8 -11 7 -5 13 5
17 4 13 -3 -5 -8 3 -10 23 -7 24 4 30 1 35 -18 3 -13 15 -30 27 -37 11 -7 17
-8 14 -2 -4 5 2 9 14 8 22 -1 27 -13 8 -19 -7 -3 -6 -7 5 -11 10 -4 17 -2 17
6 0 7 9 13 20 14 11 1 18 -3 14 -8 -3 -5 5 -18 17 -28 21 -17 23 -17 41 1 22
22 22 25 1 31 -16 4 -16 5 -1 6 12 1 15 8 12 31 -3 18 -1 30 6 30 6 0 8 -5 4
-12 -5 -7 -3 -8 5 -3 10 5 10 10 1 19 -8 8 -15 7 -24 -6 -16 -22 -30 -23 -22
-2 3 9 2 12 -5 9 -6 -4 -8 -13 -5 -20 3 -9 -2 -11 -16 -7 -15 4 -17 7 -6 13
10 7 11 9 0 9 -7 0 -11 4 -8 9 7 10 -22 24 -33 16 -4 -2 -8 2 -8 10 0 18 33
20 40 3 3 -7 4 -3 4 9 -1 12 -4 21 -7 20 -3 -1 -21 5 -40 12 -26 10 -30 15
-17 18 14 4 16 11 11 41 -6 37 -24 68 -24 43 0 -11 -3 -11 -15 -1 -13 10 -12
14 7 30 12 10 28 16 35 13 7 -3 17 7 23 22 5 14 14 23 20 20 6 -4 7 1 3 10 -5
15 1 16 48 13 37 -3 53 -8 51 -17 -2 -8 4 -10 17 -6 11 3 22 1 26 -5 4 -6 12
-5 21 5 9 8 19 13 24 10 13 -8 22 13 15 36 -5 15 -13 19 -29 15 -15 -4 -25 1
-34 14 -7 11 -20 20 -29 20 -13 0 -14 3 -5 12 9 9 16 8 30 -5 20 -18 42 -23
42 -9 0 5 7 9 15 9 8 0 12 -4 10 -8 -3 -3 2 -12 10 -19 8 -7 15 -9 15 -4 0 5
12 -4 26 -19 14 -16 23 -31 20 -34 -8 -9 32 -35 43 -29 5 3 12 -1 15 -10 4
-10 12 -14 22 -10 12 5 15 2 10 -9 -3 -9 -2 -14 2 -11 5 3 21 -2 36 -10 32
-16 49 -19 26 -4 -13 9 -13 10 0 10 13 0 13 1 0 10 -12 8 -12 10 -1 10 11 0
11 3 1 15 -7 8 -16 13 -19 10 -4 -2 -8 2 -8 10 0 12 4 12 20 -2 10 -10 22 -18
26 -18 3 0 5 -10 4 -22 -1 -12 5 -24 14 -27 13 -5 14 -4 4 8 -10 11 -9 16 2
23 8 4 22 20 32 36 13 20 23 26 38 21 14 -4 18 -3 13 7 -5 8 -2 7 6 -1 7 -9
34 -26 60 -38 27 -12 48 -27 48 -32 0 -6 13 -10 29 -10 16 0 32 -6 34 -12 3
-7 6 -3 6 10 1 25 16 30 24 8 3 -8 1 -17 -6 -19 -7 -3 -3 -5 9 -4 15 1 20 6
17 18 -3 9 0 20 6 23 7 4 9 1 5 -8 -3 -8 -1 -23 5 -33 10 -17 10 -17 11 0 0 9
6 17 13 17 8 0 7 4 -3 11 -12 8 -11 9 5 5 11 -3 33 1 49 9 45 24 41 11 -5 -14
-45 -26 -48 -40 -3 -16 34 18 58 20 48 4 -3 -6 5 -3 20 6 29 19 36 10 9 -12
-16 -12 -14 -12 10 -1 17 7 26 17 23 25 -3 8 1 16 9 20 11 4 12 9 5 18 -7 9
-2 12 20 12 17 0 30 -4 30 -9 0 -4 -7 -8 -17 -8 -15 0 -15 -1 0 -18 10 -10 17
-24 17 -30 0 -7 5 -12 11 -12 5 0 7 -5 3 -12 -5 -8 -2 -9 9 -5 10 3 17 3 17
-2 0 -4 9 -7 20 -6 13 1 28 16 40 38 24 44 15 70 -36 107 -36 26 -58 64 -69
117 -6 32 -30 61 -42 49 -3 -3 -1 -6 6 -6 7 0 9 -5 5 -12 -4 -7 -3 -8 4 -4 7
4 12 3 12 -2 0 -5 -9 -12 -20 -15 -11 -3 -18 -2 -15 3 3 4 -6 11 -20 14 -14 4
-35 18 -47 31 -11 13 -26 22 -31 18 -6 -3 -7 -1 -4 5 4 5 4 17 1 26 -5 12 -11
13 -24 6 -27 -14 -47 -13 -32 2 9 9 7 15 -6 25 -9 8 -11 11 -3 7 9 -5 12 -3 7
5 -4 6 -16 9 -27 6 -14 -5 -19 -1 -19 14 0 17 -5 20 -30 15 -17 -4 -30 -3 -30
2 0 5 -20 34 -45 64 -25 30 -45 62 -45 71 0 30 28 29 61 -2 17 -16 36 -29 43
-29 6 0 4 -5 -4 -10 -9 -6 -10 -10 -3 -10 19 0 26 20 9 26 -12 5 -13 10 -4 24
9 14 16 16 31 9 10 -6 26 -8 35 -4 14 5 14 7 2 16 -13 8 -12 12 4 24 23 17 46
20 46 5 0 -5 11 -10 24 -10 14 0 28 -4 31 -10 10 -16 36 -12 51 7 13 17 13 17
14 1 0 -10 4 -18 10 -18 5 0 6 8 3 17 -6 16 -5 16 10 4 10 -8 21 -11 24 -7 4
4 1 11 -7 16 -13 8 -13 10 1 10 8 0 21 -6 28 -13 11 -9 13 -9 7 0 -4 7 -2 13
4 13 6 0 8 5 5 11 -4 6 -13 8 -20 5 -9 -3 -12 2 -10 14 2 10 -4 25 -13 32 -15
11 -16 11 -7 -2 6 -9 2 -8 -7 2 -18 20 -17 42 4 150 9 42 15 55 24 47 8 -6 16
-4 24 6 11 13 9 20 -11 42 -13 14 -18 23 -11 19 6 -4 12 -2 12 4 0 6 4 8 10 5
6 -4 7 1 3 11 -4 11 -8 13 -11 6 -6 -19 -22 -3 -22 23 0 21 26 42 38 30 3 -3
0 -5 -7 -5 -7 0 -9 -5 -5 -11 5 -8 9 -7 14 1 5 8 15 10 26 5 22 -9 30 -12 44
-14 6 0 15 -11 20 -23 l9 -23 0 23 c1 14 6 22 13 19 7 -2 21 5 31 16 9 11 17
15 17 9 0 -13 27 -12 48 2 7 4 11 4 10 -1 -5 -14 26 -50 47 -55 12 -2 19 -11
18 -22 0 -11 4 -15 13 -12 7 3 16 1 19 -4 3 -5 -3 -10 -12 -13 -16 -3 -16 -5
2 -11 11 -5 33 -14 50 -21 18 -9 34 -10 40 -5 7 6 16 5 23 -2 9 -9 12 -9 12 3
0 7 7 1 15 -15 18 -34 19 -50 3 -40 -7 4 -8 3 -4 -4 4 -7 12 -12 18 -12 7 0
22 -10 35 -22 18 -17 26 -19 35 -10 7 7 20 12 29 12 10 0 21 5 25 12 5 8 2 9
-10 5 -9 -4 -14 -3 -11 2 3 5 1 12 -5 16 -16 10 -12 25 6 25 10 0 14 -6 10
-15 -5 -14 6 -20 28 -16 5 1 4 -5 -3 -13 -10 -12 -9 -17 8 -26 12 -6 21 -16
21 -23 0 -17 32 -43 61 -51 21 -6 21 -5 6 4 -9 6 -15 15 -12 21 7 11 68 13 62
2 -2 -5 7 -19 21 -33 13 -14 22 -20 18 -13 -3 6 -2 14 4 18 9 6 12 2 14 -27 1
-17 19 -37 28 -31 5 2 18 6 29 8 12 3 24 7 28 11 3 4 -3 4 -14 1 -17 -6 -18
-5 -4 5 14 10 14 13 -3 30 -19 19 -17 38 5 38 7 0 6 -4 -3 -11 -12 -8 -10 -9
9 -7 16 2 29 -5 40 -22 9 -13 11 -21 5 -17 -13 8 -23 -11 -17 -30 3 -7 9 -13
15 -13 6 0 6 6 -2 15 -10 12 -10 15 4 15 9 0 16 -7 16 -15 0 -23 41 -56 63
-49 16 5 18 2 12 -15 -5 -16 -2 -21 12 -20 10 0 13 3 7 5 -6 3 -10 19 -8 36 4
34 14 52 14 25 0 -18 15 -23 24 -8 11 17 58 9 63 -10 5 -16 7 -16 20 -4 17 17
39 19 48 5 7 -11 -49 -70 -66 -70 -6 0 -4 -6 3 -13 19 -18 55 -18 62 0 6 14 4
14 -11 2 -17 -12 -17 -12 0 7 15 16 19 17 28 4 8 -11 9 -6 6 22 -4 26 -1 38 9
42 8 3 14 0 14 -8 0 -7 7 -13 15 -13 11 0 13 6 9 20 -5 16 -3 19 10 14 9 -4
16 -2 16 3 0 6 -4 10 -8 10 -5 0 -13 12 -20 28 -7 17 -10 20 -8 7 2 -17 -3
-21 -25 -23 -15 -1 -31 3 -34 8 -4 7 2 9 19 4 16 -4 26 -2 26 5 0 6 -6 8 -14
5 -8 -3 -17 0 -22 7 -4 8 -3 10 4 5 8 -5 10 -2 6 8 -3 9 -10 14 -14 11 -4 -2
-15 4 -24 14 -13 14 -14 24 -7 43 8 22 6 27 -16 39 -14 7 -29 24 -34 37 -7 18
-14 22 -32 16 -12 -4 -25 -12 -29 -18 -5 -8 -8 -7 -8 2 0 10 -4 10 -16 -2 -23
-23 -59 -3 -44 24 11 20 31 26 44 13 9 -10 56 -12 56 -3 0 14 -33 21 -40 9 -5
-7 -10 -8 -14 -1 -9 15 17 32 34 22 8 -6 20 -10 25 -9 6 0 -1 6 -15 13 -21 12
-29 12 -52 0 -24 -13 -27 -12 -22 1 4 8 11 15 16 15 6 0 8 9 5 20 -3 10 0 21
6 23 6 2 3 6 -7 10 -9 4 -15 3 -12 -1 7 -12 -12 -38 -21 -29 -4 5 -1 12 7 17
8 6 12 10 8 10 -4 0 -3 11 2 25 7 19 6 23 -4 19 -8 -3 -17 -1 -20 4 -9 15 4
43 16 36 6 -4 8 1 4 14 -6 17 -1 21 36 28 24 4 37 9 30 11 -6 3 -10 8 -7 13 3
4 -9 13 -25 19 -33 11 -42 32 -10 24 22 -6 26 7 8 25 -7 7 -8 12 -4 12 4 0 21
-14 38 -32 27 -29 76 -49 61 -25 -4 6 4 3 18 -6 27 -19 54 -23 43 -5 -4 7 -3
8 4 4 7 -4 12 -15 12 -24 0 -13 2 -14 9 -4 4 8 11 13 15 13 3 -1 14 -1 24 -1
15 1 15 2 -2 15 -19 14 -11 21 18 16 21 -4 77 23 95 44 10 14 22 21 27 17 5
-4 2 2 -7 13 -21 25 -17 47 12 76 20 20 26 21 53 10 26 -9 33 -9 43 5 9 12 9
22 2 36 -10 19 -5 38 11 38 5 0 17 -16 26 -35 9 -19 21 -35 26 -35 5 0 7 -4 4
-9 -3 -5 1 -11 9 -14 9 -4 13 -19 12 -46 -2 -48 6 -59 30 -40 16 13 17 12 4
-3 -11 -15 -11 -19 5 -25 29 -11 44 -29 44 -56 0 -13 3 -27 7 -31 4 -3 8 -13
9 -20 1 -7 5 -23 8 -34 4 -11 2 -23 -3 -27 -7 -4 -8 1 -5 12 5 15 4 15 -4 3
-12 -17 -5 -33 12 -27 7 3 11 -8 11 -32 -1 -44 12 -74 28 -64 8 4 7 1 -1 -10
-8 -9 -10 -22 -6 -29 6 -9 3 -9 -10 1 -15 12 -17 12 -14 0 2 -8 12 -17 23 -21
19 -6 18 -6 -2 -7 -13 -1 -23 -6 -23 -12 0 -5 5 -7 12 -3 7 4 8 3 4 -4 -4 -7
-14 -12 -22 -12 -8 0 -14 -4 -14 -9 0 -5 -9 -12 -19 -16 -11 -3 -32 -22 -47
-42 -15 -20 -22 -33 -16 -29 7 4 12 3 12 -3 0 -5 -6 -11 -12 -13 -10 -4 -10
-10 -1 -31 14 -29 7 -36 -11 -12 -8 10 -15 12 -26 5 -13 -8 -13 -11 -1 -19 23
-15 3 -29 -39 -27 -31 2 -45 -3 -63 -22 l-22 -25 23 6 c16 4 22 1 22 -11 0
-13 3 -12 15 4 14 19 14 19 15 -1 0 -33 39 -44 78 -22 30 18 44 47 22 47 -5 0
-7 -8 -4 -17 5 -15 4 -16 -5 -3 -16 22 -13 30 10 30 12 0 33 12 47 27 27 29
52 38 53 20 0 -7 4 -3 9 8 5 11 9 15 9 8 1 -14 28 -7 52 14 9 7 20 10 25 6 5
-5 1 2 -9 14 -14 16 -15 23 -6 29 8 5 10 3 4 -6 -6 -9 -4 -11 4 -6 7 5 10 14
7 22 -3 8 1 14 10 14 10 0 14 6 11 15 -4 8 -2 17 3 20 5 3 7 14 5 24 -2 12 3
21 16 24 11 3 19 0 19 -6 0 -8 3 -8 8 0 5 7 21 14 38 15 16 1 32 6 35 11 4 5
10 0 14 -12 3 -11 13 -21 21 -21 8 0 14 -5 14 -11 0 -5 -4 -7 -10 -4 -21 13
-9 -9 18 -31 15 -13 21 -24 14 -24 -10 0 -10 -5 -1 -22 15 -29 19 -91 6 -99
-5 -4 0 -12 13 -19 19 -10 24 -10 31 3 6 9 17 13 29 10 11 -3 20 -1 20 5 0 5
10 12 22 15 17 5 19 9 10 20 -9 10 -9 14 1 15 6 0 21 3 32 6 11 2 22 5 25 5 2
1 -1 6 -8 13 -8 8 -15 8 -27 -2 -10 -8 -15 -9 -15 -1 0 6 4 11 9 11 13 0 60
47 54 54 -4 3 -1 6 5 6 18 0 35 42 38 93 2 34 9 55 23 68 12 11 21 29 21 39 0
11 6 19 13 18 6 -2 11 5 11 15 -1 10 3 16 10 14 6 -2 25 2 43 10 18 7 39 10
47 7 11 -4 13 0 9 15 -3 12 -1 21 6 21 6 0 11 -4 11 -10 0 -5 9 -10 19 -10 14
0 18 -5 14 -20 -4 -14 0 -20 13 -22 11 0 24 -2 29 -3 6 -2 14 -3 19 -4 6 0 1
-8 -10 -16 -19 -15 -19 -15 1 -9 l20 5 -20 -13 c-11 -7 -22 -20 -23 -28 -2 -8
-1 -12 3 -8 4 4 17 3 30 -2 27 -10 39 -2 24 17 -9 10 -8 13 5 13 9 0 16 -8 16
-18 0 -12 9 -18 26 -20 21 -2 25 2 21 17 -3 13 5 26 24 40 16 12 29 18 28 14
-3 -20 2 -24 16 -13 13 11 15 8 15 -14 0 -14 -4 -26 -10 -26 -5 0 -10 -5 -10
-11 0 -7 -8 -18 -17 -25 -17 -12 -17 -12 2 -9 11 2 24 4 28 4 5 1 6 5 2 10 -3
5 -1 12 5 16 5 3 10 17 10 31 0 15 4 23 10 19 6 -4 8 -11 5 -16 -14 -22 4 -6
20 18 15 22 15 25 2 20 -11 -4 -14 -2 -11 7 3 8 -10 19 -33 29 -21 9 -28 15
-17 13 12 -2 28 0 35 5 10 6 4 9 -18 9 -17 0 -39 8 -49 17 -28 29 -84 22 -129
-15 -22 -17 -44 -32 -50 -32 -5 0 -3 5 5 10 10 6 11 10 3 10 -21 0 -15 55 7
75 15 14 20 15 20 4 0 -12 2 -12 9 0 5 8 16 11 25 8 8 -3 21 0 29 7 19 20 57
30 57 16 0 -7 7 -10 15 -7 8 4 17 2 20 -3 3 -4 -1 -10 -7 -13 -7 -2 1 -4 17
-5 17 0 44 -3 60 -7 23 -5 26 -4 15 4 -10 7 -11 11 -3 11 7 0 10 7 7 15 -4 8
-1 15 6 15 9 0 7 6 -4 19 -17 19 -17 19 3 14 20 -5 21 -2 17 51 -2 31 0 56 5
56 11 0 23 -46 14 -59 -3 -6 -1 -11 4 -11 6 0 11 4 11 8 0 5 7 17 15 28 15 18
15 18 9 -7 -3 -15 -1 -30 5 -33 6 -4 11 -12 11 -17 0 -6 -4 -8 -9 -4 -5 3 -10
-9 -10 -27 0 -18 0 -40 -1 -48 -2 -31 9 -93 18 -102 7 -7 14 -2 22 12 8 15 8
20 1 16 -7 -5 -10 1 -7 16 3 13 5 25 5 28 1 3 6 -2 11 -10 8 -13 11 -13 26 1
12 13 13 18 3 24 -7 5 -10 4 -5 -3 3 -6 2 -13 -4 -17 -9 -6 -14 8 -11 28 2 12
-37 -11 -42 -25 -4 -9 -6 -8 -6 2 -1 8 8 21 19 28 12 7 18 17 15 22 -3 6 -2
10 4 10 7 0 7 8 1 25 -7 18 -6 24 3 22 7 -1 15 -6 18 -11 8 -10 49 2 49 14 0
5 -6 7 -14 4 -7 -3 -16 2 -19 10 -4 9 -14 16 -22 16 -9 0 -13 -4 -10 -10 3 -6
-1 -7 -10 -4 -12 5 -13 10 -6 17 13 13 15 30 3 23 -5 -3 -9 1 -9 9 0 8 5 13
10 12 5 -1 12 4 14 11 4 9 -2 10 -23 2 l-28 -11 27 25 c34 32 35 44 2 22 -25
-17 -25 -16 -13 4 7 11 17 20 21 20 5 0 7 6 4 13 -2 6 0 24 4 40 7 24 5 27
-18 27 -18 0 -24 -4 -19 -15 3 -8 1 -15 -4 -15 -6 0 -10 7 -10 15 0 24 -20 17
-21 -7 0 -22 -1 -22 -8 -3 -11 26 -2 48 16 41 11 -4 11 -1 2 15 -6 11 -8 23
-5 27 3 3 6 0 6 -6 0 -7 14 -4 35 8 60 34 99 20 89 -31 -2 -13 -2 -18 2 -11 3
6 13 12 22 12 14 0 15 2 2 10 -20 12 -7 22 34 25 26 3 33 0 29 -11 -3 -8 0
-14 7 -14 6 0 9 4 5 9 -3 5 -1 12 5 16 5 3 10 14 10 23 0 15 -2 15 -10 2 -6
-9 -10 -10 -10 -3 0 17 31 45 45 40 6 -3 12 1 12 8 0 7 -6 11 -14 8 -7 -3 -13
-1 -13 5 0 5 9 12 19 15 21 5 35 -14 40 -53 0 -5 9 -10 20 -10 17 0 35 31 32
53 -1 5 4 5 10 1 8 -4 9 -3 5 4 -4 7 -19 12 -34 13 l-27 1 30 10 c21 8 30 8
33 -1 2 -7 16 -9 40 -6 28 5 33 4 22 -4 -8 -6 -21 -11 -28 -11 -7 0 -22 -8
-33 -18 -15 -14 -18 -26 -13 -51 4 -17 11 -34 16 -37 5 -3 4 -11 -2 -19 -8 -9
-8 -15 0 -20 5 -3 10 -10 10 -16 0 -14 -28 -11 -33 4 -4 8 -6 6 -6 -4 -1 -9
-10 -24 -22 -35 -17 -16 -23 -16 -42 -5 -16 10 -22 11 -25 2 -3 -9 -8 -9 -20
1 -12 10 -12 8 2 -14 10 -15 14 -33 10 -39 -4 -7 -3 -9 4 -5 6 3 13 2 17 -4 3
-5 1 -10 -5 -10 -6 0 -8 -5 -5 -10 4 -6 12 -7 18 -3 7 4 23 7 37 8 14 0 26 3
28 7 2 4 9 20 17 35 10 19 11 31 3 40 -8 10 -5 13 11 13 18 0 20 -4 15 -27 -4
-16 -12 -31 -17 -34 -5 -4 -7 -25 -4 -48 3 -27 1 -41 -6 -41 -7 0 -6 -4 3 -9
8 -6 18 -7 22 -5 4 3 5 -1 3 -8 -4 -10 3 -13 22 -12 47 2 53 4 53 17 0 6 10
13 23 13 50 3 75 9 71 16 -3 5 -9 6 -14 3 -4 -3 -11 2 -14 11 -4 12 -2 15 9
10 8 -3 14 0 12 7 -1 7 8 12 20 11 13 0 20 4 16 10 -3 6 8 -5 26 -24 17 -19
31 -30 30 -25 -5 40 12 62 25 30 3 -8 1 -14 -3 -12 -5 1 -9 -1 -10 -5 -1 -5 0
-7 2 -6 1 1 11 -4 23 -10 16 -8 24 -8 33 1 17 17 -9 -43 -27 -62 -17 -18 -11
-46 10 -46 9 0 20 -3 23 -7 13 -12 35 4 35 26 0 17 2 18 10 6 5 -8 10 -10 10
-4 0 6 7 11 15 11 8 0 15 -4 15 -8 0 -12 71 -41 86 -35 8 3 14 1 14 -5 0 -5
11 -2 24 8 13 10 22 21 20 25 -3 4 7 18 21 32 14 14 25 22 25 18 0 -4 4 -1 8
5 4 7 33 17 63 23 34 6 61 18 74 32 35 40 99 85 138 97 20 7 37 17 37 21 0 5
6 7 13 4 7 -2 22 5 34 16 27 24 35 25 31 4 -2 -11 12 -22 44 -35 26 -10 66
-30 89 -45 23 -14 58 -32 78 -39 20 -7 55 -23 79 -34 36 -19 41 -24 32 -41 -5
-10 -9 -37 -8 -59 1 -45 -1 -51 -29 -56 -29 -6 -29 -6 -8 -16 18 -8 17 -9 -5
-5 -33 7 -84 -46 -77 -81 3 -15 -2 -27 -12 -33 -10 -6 -11 -10 -3 -10 14 0 17
-60 2 -60 -5 0 -10 6 -10 13 0 8 -2 9 -8 1 -11 -17 -53 1 -46 20 3 9 -3 19
-18 26 -22 10 -22 10 -4 -4 17 -14 17 -16 3 -22 -10 -3 -17 -12 -17 -20 0 -8
-4 -14 -10 -14 -5 0 -10 -7 -10 -15 0 -18 16 -20 24 -2 3 6 3 1 0 -13 -4 -14
-11 -28 -17 -31 -5 -4 -6 -12 -2 -19 4 -7 2 -11 -6 -9 -26 3 -39 -1 -39 -12 0
-5 6 -7 13 -3 6 4 9 4 5 -1 -4 -4 -2 -15 5 -24 10 -14 10 -14 -3 -5 -8 6 -26
14 -40 17 -21 5 -26 2 -27 -14 -1 -11 -16 -37 -32 -58 -37 -47 -42 -91 -10
-91 18 0 20 -4 14 -27 -3 -15 -12 -32 -20 -37 -7 -6 -16 -22 -20 -35 -7 -22
-5 -23 20 -19 14 3 23 2 18 -3 -4 -4 -20 -9 -35 -11 -15 -2 -30 -7 -34 -10 -7
-8 47 -2 77 7 11 4 19 2 19 -5 0 -6 -4 -8 -10 -5 -5 3 -10 1 -10 -5 0 -6 -5
-8 -12 -4 -10 6 -9 3 0 -8 8 -9 20 -14 28 -11 11 4 14 -4 14 -35 0 -23 -4 -43
-8 -46 -5 -3 -8 -15 -7 -28 1 -13 -3 -26 -9 -30 -20 -14 14 -9 85 13 38 12 67
24 64 29 -2 4 6 6 20 5 13 -2 30 4 37 13 11 13 11 14 -1 7 -10 -5 -12 -4 -7 3
5 9 13 9 28 1 11 -6 18 -7 15 -1 -4 5 11 14 32 21 52 15 51 15 51 -20 0 -18 4
-28 10 -24 14 9 8 -16 -7 -33 -7 -7 -13 -20 -13 -28 0 -8 -4 -14 -9 -14 -12 0
-34 -56 -28 -72 3 -7 6 -3 6 9 1 17 6 21 29 20 24 -2 27 -7 28 -39 1 -21 -3
-35 -7 -32 -5 3 -9 -2 -9 -10 0 -17 -49 -58 -61 -51 -4 3 -6 -5 -4 -17 5 -29
-40 -55 -62 -37 -10 9 -13 7 -13 -10 0 -27 -17 -27 -25 0 -4 11 -9 19 -11 16
-3 -2 0 -17 6 -32 12 -30 4 -48 -10 -25 -7 11 -11 9 -19 -11 -11 -31 -34 -42
-51 -26 -8 7 -11 8 -7 1 4 -6 -6 -21 -20 -34 -23 -20 -24 -24 -11 -34 8 -6 17
-22 21 -34 3 -13 3 -21 0 -18 -4 3 -14 -5 -23 -20 -10 -14 -20 -25 -24 -24 -3
1 -20 -1 -36 -5 -20 -4 -27 -11 -23 -21 3 -8 1 -14 -5 -14 -6 0 -12 5 -14 12
-3 8 -9 8 -19 2 -8 -5 -23 -9 -34 -9 -10 0 -25 -11 -31 -23 -7 -14 -13 -19
-16 -12 -4 14 45 70 62 70 6 0 9 4 6 9 -4 5 0 12 6 15 7 4 3 4 -9 2 -13 -2
-23 0 -23 5 0 5 -7 9 -15 9 -8 0 -15 -6 -15 -13 0 -18 -35 -37 -59 -32 -12 2
-19 0 -16 -5 3 -4 -2 -15 -10 -23 -18 -19 -20 -31 -2 -21 6 4 2 -3 -10 -15
-24 -23 -28 -32 -15 -30 19 3 26 -2 12 -11 -12 -7 -12 -12 -2 -22 8 -8 12 -8
12 -1 0 6 12 10 26 8 19 -2 28 3 31 16 8 29 18 23 19 -11 1 -17 -3 -30 -8 -30
-5 0 -7 -4 -3 -9 6 -11 -36 -102 -45 -96 -16 10 -2 -48 14 -61 11 -8 16 -14
10 -14 -5 0 -10 -16 -11 -36 -1 -22 -11 -46 -24 -60 -19 -20 -20 -24 -6 -30
14 -5 12 -9 -8 -29 -14 -12 -25 -26 -25 -30 0 -4 -10 -23 -22 -43 -22 -37 -25
-49 -33 -177 -10 -172 -8 -162 -30 -158 -19 4 -19 4 -2 -7 14 -9 17 -19 13
-38 -6 -24 -5 -25 5 -7 12 22 49 54 62 55 14 0 7 -29 -12 -42 -10 -7 -35 -50
-56 -96 -36 -77 -55 -101 -55 -67 0 8 5 15 10 15 6 0 10 12 10 28 0 15 7 39
17 52 9 14 10 20 3 13 -7 -6 -19 -9 -26 -6 -10 4 -12 0 -8 -11 5 -12 2 -15
-10 -10 -9 3 -16 1 -16 -5 0 -6 -6 -8 -14 -5 -10 4 -16 -2 -18 -18 -2 -13 -9
-22 -17 -20 -9 2 -11 -3 -7 -13 3 -9 6 -23 6 -31 0 -9 5 -12 10 -9 6 3 10 2
10 -3 0 -6 7 -9 16 -8 11 0 21 -13 30 -37 11 -32 11 -37 -2 -37 -7 0 -23 9
-34 20 -14 14 -28 18 -45 14 -19 -5 -25 -2 -25 10 0 9 -8 16 -21 16 -11 0 -17
-4 -14 -10 3 -5 -3 -15 -15 -22 -11 -7 -20 -20 -20 -30 0 -9 -9 -20 -20 -23
-11 -4 -18 -10 -15 -14 2 -5 -4 -16 -15 -26 -11 -10 -20 -26 -20 -37 0 -10 -5
-18 -11 -18 -6 0 -8 -7 -5 -15 3 -9 -1 -18 -9 -21 -8 -4 -12 -10 -9 -16 3 -5
-2 -18 -11 -28 -22 -24 -141 -83 -153 -76 -5 3 -22 -8 -37 -24 -16 -17 -25
-30 -20 -30 5 0 4 -5 -3 -12 -7 -7 -12 -27 -12 -45 0 -18 -4 -33 -10 -33 -17
0 -11 -29 9 -47 11 -9 17 -23 13 -31 -3 -10 -1 -13 6 -8 18 11 37 -4 21 -16
-10 -6 -7 -7 9 -3 15 4 24 2 28 -9 6 -16 45 -18 56 -1 5 6 8 6 8 -2 0 -19 376
-19 383 0 4 9 6 9 6 0 1 -7 12 -13 26 -13 19 0 23 4 18 18 -3 9 -13 23 -22 31
-15 13 -15 13 1 8 20 -7 55 28 38 38 -5 3 -7 11 -4 17 5 7 1 9 -9 5 -12 -4
-15 -2 -11 11 14 42 40 82 51 78 7 -3 15 4 18 15 4 10 15 19 26 19 11 0 18 4
14 9 -3 5 0 13 6 17 6 4 16 -1 21 -10 5 -9 14 -16 21 -16 7 0 23 -13 37 -29
13 -17 27 -28 31 -25 4 2 10 0 14 -6 8 -13 25 -13 25 1 0 5 -3 8 -8 6 -4 -3
-12 1 -19 8 -10 10 -9 14 3 19 9 3 12 2 9 -5 -4 -6 1 -9 11 -7 13 2 18 -2 17
-12 -2 -10 5 -16 16 -16 10 0 17 6 14 12 -3 8 4 11 21 10 23 -3 24 -1 14 12
-11 13 -10 15 5 9 10 -4 16 -3 13 2 -3 4 6 19 21 32 14 13 23 18 18 10 -6 -11
-2 -13 16 -9 13 3 33 9 44 13 l20 8 -20 -17 c-19 -15 -19 -16 -1 -9 15 5 17 3
11 -8 -5 -8 -4 -11 1 -6 11 10 13 57 2 57 -4 0 -8 4 -8 9 0 6 12 4 26 -4 15
-7 33 -11 40 -8 8 3 22 -1 31 -8 15 -13 15 -12 4 9 -12 22 1 32 15 11 3 -6 21
-9 38 -6 37 5 58 -1 50 -15 -4 -5 5 -2 20 7 23 16 27 16 42 1 9 -9 13 -23 10
-31 -3 -9 0 -15 9 -15 19 0 20 -54 3 -66 -26 -18 -74 -3 -62 19 5 8 3 8 -7 0
-18 -18 -44 -16 -63 3 -9 8 -16 11 -16 5 0 -7 -14 -9 -39 -5 -30 5 -39 3 -44
-11 -4 -9 -11 -14 -16 -10 -10 5 -26 -32 -23 -51 1 -6 -8 -19 -20 -30 -12 -10
-18 -13 -14 -6 12 20 -3 14 -27 -11 -12 -13 -16 -15 -8 -5 13 17 13 18 -1 13
-23 -9 -30 -33 -18 -56 8 -15 7 -19 -4 -19 -10 0 -13 6 -10 15 4 8 1 15 -5 15
-6 0 -11 -4 -11 -10 0 -5 -7 -6 -17 -3 -10 4 -14 2 -10 -4 4 -6 1 -14 -5 -16
-7 -3 103 -6 245 -6 l257 -1 0 376 0 376 -34 -4 c-19 -2 -32 0 -30 4 3 4 18 8
35 8 l29 0 -1 128 c-1 110 -3 120 -11 76 -6 -32 -19 -62 -37 -82 -16 -17 -27
-33 -24 -35 2 -3 -3 -7 -11 -10 -24 -10 -29 11 -5 23 11 7 18 14 15 17 -3 3 1
15 9 27 20 27 19 37 -2 29 -16 -5 -16 -4 1 9 15 12 16 18 7 35 -13 25 11 93
32 93 8 0 7 -3 -3 -10 -8 -5 -12 -11 -9 -15 3 -3 13 3 22 13 18 19 13 63 -6
57 -7 -2 -25 -6 -42 -9 -22 -5 -26 -4 -15 4 12 8 11 10 -7 10 -13 0 -23 5 -23
11 0 6 -7 17 -16 26 -8 9 -13 22 -10 29 3 8 1 14 -4 14 -6 0 -10 -4 -10 -10 0
-15 -26 -12 -39 4 -9 11 -9 16 0 22 8 5 9 3 4 -6 -5 -9 -4 -11 4 -6 9 6 9 11
1 22 -9 10 -8 20 3 42 11 23 12 34 3 51 -7 12 -15 18 -19 15 -4 -4 -7 -4 -7
-1 0 4 12 13 27 21 16 8 22 15 15 16 -7 0 -22 -5 -32 -10 -13 -7 -21 -7 -26 2
-4 6 -3 8 4 4 6 -3 13 -2 16 3 10 15 -25 6 -35 -10 -8 -10 -8 -7 -3 11 7 26
23 42 35 34 4 -2 10 -1 13 4 2 4 -6 8 -20 8 -13 0 -24 -4 -24 -8 0 -4 -9 -8
-20 -8 -12 0 -20 -7 -20 -16 0 -14 -1 -14 -16 0 -19 19 -44 21 -44 4 0 -9 -3
-9 -9 1 -5 8 -16 11 -25 8 -17 -7 -22 8 -6 18 5 3 7 12 3 20 -3 8 0 15 6 15 6
0 11 7 11 15 0 8 5 15 11 15 5 0 8 4 4 9 -3 5 -1 12 5 16 5 3 21 31 35 61 14
30 30 52 35 49 6 -3 10 1 10 10 0 11 6 14 25 9 21 -5 25 -3 25 15 0 23 14 28
26 9 5 -7 3 -8 -6 -3 -10 6 -12 4 -7 -8 3 -9 2 -19 -3 -22 -6 -4 -10 -11 -10
-17 0 -7 5 -7 14 1 11 9 15 8 20 -4 3 -9 2 -14 -3 -11 -4 3 -14 -6 -22 -20
-11 -22 -11 -27 1 -34 8 -6 10 -10 5 -10 -6 0 -16 5 -23 12 -9 9 -13 5 -18
-20 -4 -17 -10 -29 -15 -26 -5 3 -6 -2 -3 -11 6 -14 8 -14 19 2 7 9 10 24 7
33 -4 12 -2 12 8 3 7 -6 19 -9 26 -6 8 3 14 0 14 -6 0 -7 -9 -15 -20 -19 -19
-7 -19 -9 -4 -27 13 -17 15 -17 10 -3 -4 14 0 18 19 18 13 0 40 9 59 19 19 11
37 17 42 13 4 -4 4 -1 0 6 -4 7 -12 10 -17 7 -5 -4 -6 2 -2 11 5 13 3 16 -10
11 -11 -4 -14 -2 -10 9 6 17 34 19 31 2 -5 -20 32 -21 53 -2 15 13 17 19 7 26
-10 6 -10 8 -1 8 18 0 19 2896 1 2903 -10 4 -10 6 0 6 6 1 12 5 12 11 0 5 -26
11 -57 13 l-58 3 58 2 57 2 0 2085 0 2085 -4350 0 -4350 0 0 -4350z m5760
4296 c0 -3 -4 -8 -10 -11 -5 -3 -10 -1 -10 4 0 6 5 11 10 11 6 0 10 -2 10 -4z
m-2970 -86 c0 -5 -2 -10 -4 -10 -3 0 -8 5 -11 10 -3 6 -1 10 4 10 6 0 11 -4
11 -10z m-2230 -44 c0 -3 -4 -8 -10 -11 -5 -3 -10 -1 -10 4 0 6 5 11 10 11 6
0 10 -2 10 -4z m6350 -36 c0 -5 -4 -10 -10 -10 -5 0 -10 5 -10 10 0 6 5 10 10
10 6 0 10 -4 10 -10z m-4950 -10 c0 -5 -7 -10 -15 -10 -8 0 -15 5 -15 10 0 6
7 10 15 10 8 0 15 -4 15 -10z m2839 1 c8 -5 9 -11 3 -15 -5 -3 -15 1 -22 9
-14 16 -3 20 19 6z m2851 -31 c0 -5 -2 -10 -4 -10 -3 0 -8 5 -11 10 -3 6 -1
10 4 10 6 0 11 -4 11 -10z m-7110 -100 c0 -5 -5 -10 -11 -10 -5 0 -7 5 -4 10
3 6 8 10 11 10 2 0 4 -4 4 -10z m4370 -10 c0 -5 -4 -10 -10 -10 -5 0 -10 5
-10 10 0 6 5 10 10 10 6 0 10 -4 10 -10z m-490 -204 c0 -3 -4 -8 -10 -11 -5
-3 -10 -1 -10 4 0 6 5 11 10 11 6 0 10 -2 10 -4z m940 -6 c0 -5 -7 -10 -15
-10 -8 0 -15 5 -15 10 0 6 7 10 15 10 8 0 15 -4 15 -10z m-4175 -40 c3 -5 1
-10 -4 -10 -6 0 -11 5 -11 10 0 6 2 10 4 10 3 0 8 -4 11 -10z m3385 -35 c0 -8
-4 -15 -9 -15 -13 0 -22 16 -14 24 11 11 23 6 23 -9z m2980 -100 c0 -8 -4 -15
-9 -15 -13 0 -22 16 -14 24 11 11 23 6 23 -9z m-4820 -65 c0 -5 -5 -10 -11
-10 -5 0 -7 5 -4 10 3 6 8 10 11 10 2 0 4 -4 4 -10z m-30 -24 c0 -3 -4 -8 -10
-11 -5 -3 -10 -1 -10 4 0 6 5 11 10 11 6 0 10 -2 10 -4z m5691 -79 c-1 -12
-15 -9 -19 4 -3 6 1 10 8 8 6 -3 11 -8 11 -12z m-921 -27 c0 -5 -2 -10 -4 -10
-3 0 -8 5 -11 10 -3 6 -1 10 4 10 6 0 11 -4 11 -10z m-2870 -310 c0 -5 -5 -10
-11 -10 -5 0 -7 5 -4 10 3 6 8 10 11 10 2 0 4 -4 4 -10z m1762 -15 c0 -5 -5
-11 -11 -13 -6 -2 -11 4 -11 13 0 9 5 15 11 13 6 -2 11 -8 11 -13z m999 -18
c-13 -13 -26 -3 -16 12 3 6 11 8 17 5 6 -4 6 -10 -1 -17z m-2396 -7 c3 -5 1
-10 -4 -10 -6 0 -11 5 -11 10 0 6 2 10 4 10 3 0 8 -4 11 -10z m265 -50 c0 -5
-4 -10 -10 -10 -5 0 -10 5 -10 10 0 6 5 10 10 10 6 0 10 -4 10 -10z m-770 -61
c0 -5 -7 -9 -15 -9 -15 0 -20 12 -9 23 8 8 24 -1 24 -14z m-3724 -44 c-5 -14
-9 -15 -21 -5 -12 10 -13 16 -4 27 15 18 34 1 25 -22z m4694 -55 c0 -5 -4 -10
-10 -10 -5 0 -10 5 -10 10 0 6 5 10 10 10 6 0 10 -4 10 -10z m-2800 -36 c0 -8
-5 -12 -10 -9 -6 4 -8 11 -5 16 9 14 15 11 15 -7z m210 -104 c0 -5 -4 -10 -10
-10 -5 0 -10 5 -10 10 0 6 5 10 10 10 6 0 10 -4 10 -10z m3155 -20 c3 -5 -1
-10 -10 -10 -9 0 -13 5 -10 10 3 6 8 10 10 10 2 0 7 -4 10 -10z m-5785 -10 c0
-5 -4 -10 -10 -10 -5 0 -10 5 -10 10 0 6 5 10 10 10 6 0 10 -4 10 -10z m3340
0 c0 -5 -4 -10 -10 -10 -5 0 -10 5 -10 10 0 6 5 10 10 10 6 0 10 -4 10 -10z
m4340 0 c0 -5 -4 -10 -10 -10 -5 0 -10 5 -10 10 0 6 5 10 10 10 6 0 10 -4 10
-10z m390 -34 c0 -3 -4 -8 -10 -11 -5 -3 -10 -1 -10 4 0 6 5 11 10 11 6 0 10
-2 10 -4z m-2817 -66 c3 -14 0 -20 -11 -20 -8 0 -12 3 -9 7 4 3 2 12 -4 20 -9
10 -8 13 4 13 8 0 17 -9 20 -20z m-3263 -20 c0 -5 -2 -10 -4 -10 -3 0 -8 5
-11 10 -3 6 -1 10 4 10 6 0 11 -4 11 -10z m6345 -30 c-3 -5 -10 -10 -16 -10
-5 0 -9 5 -9 10 0 6 7 10 16 10 8 0 12 -4 9 -10z m-2475 -20 c0 -5 -4 -10 -10
-10 -5 0 -10 5 -10 10 0 6 5 10 10 10 6 0 10 -4 10 -10z m-930 -40 c0 -5 -4
-10 -10 -10 -5 0 -10 5 -10 10 0 6 5 10 10 10 6 0 10 -4 10 -10z m-830 -104
c0 -3 -4 -8 -10 -11 -5 -3 -10 -1 -10 4 0 6 5 11 10 11 6 0 10 -2 10 -4z
m-3840 -20 c0 -3 -4 -8 -10 -11 -5 -3 -10 -1 -10 4 0 6 5 11 10 11 6 0 10 -2
10 -4z m2480 -26 c0 -5 -2 -10 -4 -10 -3 0 -8 5 -11 10 -3 6 -1 10 4 10 6 0
11 -4 11 -10z m-430 -100 c0 -5 -4 -10 -10 -10 -5 0 -10 5 -10 10 0 6 5 10 10
10 6 0 10 -4 10 -10z m3490 -44 c0 -3 -4 -8 -10 -11 -5 -3 -10 -1 -10 4 0 6 5
11 10 11 6 0 10 -2 10 -4z m590 -36 c0 -5 -5 -10 -11 -10 -5 0 -7 5 -4 10 3 6
8 10 11 10 2 0 4 -4 4 -10z m-1060 -60 c0 -5 -4 -10 -10 -10 -5 0 -10 5 -10
10 0 6 5 10 10 10 6 0 10 -4 10 -10z m2640 -14 c0 -11 -19 -15 -25 -6 -3 5 1
10 9 10 9 0 16 -2 16 -4z m-3150 -31 c0 -8 -4 -15 -10 -15 -5 0 -10 7 -10 15
0 8 5 15 10 15 6 0 10 -7 10 -15z m-4405 -24 c3 -5 1 -12 -5 -16 -5 -3 -10 1
-10 9 0 18 6 21 15 7z m-425 -45 c0 -3 -4 -8 -10 -11 -5 -3 -10 -1 -10 4 0 6
5 11 10 11 6 0 10 -2 10 -4z m5150 0 c0 -3 -4 -8 -10 -11 -5 -3 -10 -1 -10 4
0 6 5 11 10 11 6 0 10 -2 10 -4z m3195 -126 c3 -5 -1 -10 -9 -10 -9 0 -16 5
-16 10 0 6 4 10 9 10 6 0 13 -4 16 -10z m-4375 -20 c0 -5 -5 -10 -11 -10 -5 0
-7 5 -4 10 3 6 8 10 11 10 2 0 4 -4 4 -10z m50 0 c0 -5 -2 -10 -4 -10 -3 0 -8
5 -11 10 -3 6 -1 10 4 10 6 0 11 -4 11 -10z m-3900 -60 c0 -5 -4 -10 -10 -10
-5 0 -10 5 -10 10 0 6 5 10 10 10 6 0 10 -4 10 -10z m1430 -40 c0 -5 -4 -10
-10 -10 -5 0 -10 5 -10 10 0 6 5 10 10 10 6 0 10 -4 10 -10z m2080 -10 c0 -5
-4 -10 -10 -10 -5 0 -10 5 -10 10 0 6 5 10 10 10 6 0 10 -4 10 -10z m-2980
-10 c0 -5 -5 -10 -11 -10 -5 0 -7 5 -4 10 3 6 8 10 11 10 2 0 4 -4 4 -10z
m4580 -4 c0 -3 -4 -8 -10 -11 -5 -3 -10 -1 -10 4 0 6 5 11 10 11 6 0 10 -2 10
-4z m2730 0 c0 -3 -4 -8 -10 -11 -5 -3 -10 -1 -10 4 0 6 5 11 10 11 6 0 10 -2
10 -4z m-480 -36 c0 -5 -5 -10 -11 -10 -5 0 -7 5 -4 10 3 6 8 10 11 10 2 0 4
-4 4 -10z m-1570 -90 c0 -5 -4 -10 -10 -10 -5 0 -10 5 -10 10 0 6 5 10 10 10
6 0 10 -4 10 -10z m-2550 -75 c0 -8 -4 -15 -10 -15 -5 0 -10 7 -10 15 0 8 5
15 10 15 6 0 10 -7 10 -15z m600 -25 c0 -5 -2 -10 -4 -10 -3 0 -8 5 -11 10 -3
6 -1 10 4 10 6 0 11 -4 11 -10z m-3520 -10 c0 -5 -5 -10 -11 -10 -5 0 -7 5 -4
10 3 6 8 10 11 10 2 0 4 -4 4 -10z m2260 0 c0 -5 -4 -10 -10 -10 -5 0 -10 5
-10 10 0 6 5 10 10 10 6 0 10 -4 10 -10z m1300 0 c0 -5 -4 -10 -10 -10 -5 0
-10 5 -10 10 0 6 5 10 10 10 6 0 10 -4 10 -10z m220 -110 c0 -5 -2 -10 -4 -10
-3 0 -8 5 -11 10 -3 6 -1 10 4 10 6 0 11 -4 11 -10z m1480 -40 c0 -5 -2 -10
-4 -10 -3 0 -8 5 -11 10 -3 6 -1 10 4 10 6 0 11 -4 11 -10z m-1740 -10 c0 -5
-4 -10 -10 -10 -5 0 -10 5 -10 10 0 6 5 10 10 10 6 0 10 -4 10 -10z m880 0 c0
-5 -4 -10 -10 -10 -5 0 -10 5 -10 10 0 6 5 10 10 10 6 0 10 -4 10 -10z m-4345
-120 c3 -5 1 -10 -4 -10 -6 0 -11 5 -11 10 0 6 2 10 4 10 3 0 8 -4 11 -10z
m2709 -11 c-3 -5 -10 -7 -15 -3 -5 3 -7 10 -3 15 3 5 10 7 15 3 5 -3 7 -10 3
-15z m3636 -35 c0 -8 -4 -12 -10 -9 -5 3 -10 10 -10 16 0 5 5 9 10 9 6 0 10
-7 10 -16z m-4010 -34 c0 -5 -4 -10 -10 -10 -5 0 -10 5 -10 10 0 6 5 10 10 10
6 0 10 -4 10 -10z m2705 -19 c3 -5 1 -12 -5 -16 -5 -3 -10 1 -10 9 0 18 6 21
15 7z m1060 -11 c3 -5 -1 -10 -10 -10 -9 0 -13 5 -10 10 3 6 8 10 10 10 2 0 7
-4 10 -10z m-4975 -30 c0 -5 -4 -10 -10 -10 -5 0 -10 5 -10 10 0 6 5 10 10 10
6 0 10 -4 10 -10z m4805 1 c3 -5 1 -12 -5 -16 -5 -3 -10 1 -10 9 0 18 6 21 15
7z m-1135 -31 c0 -5 -4 -10 -10 -10 -5 0 -10 5 -10 10 0 6 5 10 10 10 6 0 10
-4 10 -10z m-5370 -10 c0 -5 -5 -10 -11 -10 -5 0 -7 5 -4 10 3 6 8 10 11 10 2
0 4 -4 4 -10z m3430 -20 c0 -5 -4 -10 -9 -10 -6 0 -13 5 -16 10 -3 6 1 10 9
10 9 0 16 -4 16 -10z m4780 -20 c0 -5 -4 -10 -9 -10 -6 0 -13 5 -16 10 -3 6 1
10 9 10 9 0 16 -4 16 -10z m-3520 -10 c0 -5 -4 -10 -10 -10 -5 0 -10 5 -10 10
0 6 5 10 10 10 6 0 10 -4 10 -10z m3790 -40 c0 -5 -5 -10 -11 -10 -5 0 -7 5
-4 10 3 6 8 10 11 10 2 0 4 -4 4 -10z m-4910 -50 c0 -5 -4 -10 -10 -10 -5 0
-10 5 -10 10 0 6 5 10 10 10 6 0 10 -4 10 -10z m2940 -30 c0 -5 -4 -10 -10
-10 -5 0 -10 5 -10 10 0 6 5 10 10 10 6 0 10 -4 10 -10z m-2900 -10 c0 -5 -5
-10 -11 -10 -5 0 -7 5 -4 10 3 6 8 10 11 10 2 0 4 -4 4 -10z m4633 -4 c8 -20
-20 -43 -35 -28 -14 14 -3 42 16 42 7 0 16 -6 19 -14z m107 4 c0 -5 -5 -10
-11 -10 -5 0 -7 5 -4 10 3 6 8 10 11 10 2 0 4 -4 4 -10z m-3750 -10 c0 -5 -4
-10 -10 -10 -5 0 -10 5 -10 10 0 6 5 10 10 10 6 0 10 -4 10 -10z m-4290 -20
c0 -5 -5 -10 -11 -10 -5 0 -7 5 -4 10 3 6 8 10 11 10 2 0 4 -4 4 -10z m8145 0
c3 -5 1 -10 -4 -10 -6 0 -11 5 -11 10 0 6 2 10 4 10 3 0 8 -4 11 -10z m-5065
-30 c0 -5 -4 -10 -10 -10 -5 0 -10 5 -10 10 0 6 5 10 10 10 6 0 10 -4 10 -10z
m-1560 -70 c0 -5 -5 -10 -11 -10 -5 0 -7 5 -4 10 3 6 8 10 11 10 2 0 4 -4 4
-10z m-660 -40 c0 -5 -4 -10 -10 -10 -5 0 -10 5 -10 10 0 6 5 10 10 10 6 0 10
-4 10 -10z m6065 -20 c3 -5 1 -10 -4 -10 -6 0 -11 5 -11 10 0 6 2 10 4 10 3 0
8 -4 11 -10z m-3535 -30 c0 -5 -4 -10 -10 -10 -5 0 -10 5 -10 10 0 6 5 10 10
10 6 0 10 -4 10 -10z m-3550 -25 c0 -8 -4 -15 -10 -15 -5 0 -10 7 -10 15 0 8
5 15 10 15 6 0 10 -7 10 -15z m5610 -65 c0 -5 -2 -10 -4 -10 -3 0 -8 5 -11 10
-3 6 -1 10 4 10 6 0 11 -4 11 -10z m2360 6 c0 -3 -4 -8 -10 -11 -5 -3 -10 -1
-10 4 0 6 5 11 10 11 6 0 10 -2 10 -4z m-2950 -26 c0 -5 -4 -10 -10 -10 -5 0
-10 5 -10 10 0 6 5 10 10 10 6 0 10 -4 10 -10z m-440 -10 c0 -5 -2 -10 -4 -10
-3 0 -8 5 -11 10 -3 6 -1 10 4 10 6 0 11 -4 11 -10z m-1490 -10 c0 -5 -5 -10
-11 -10 -5 0 -7 5 -4 10 3 6 8 10 11 10 2 0 4 -4 4 -10z m195 0 c3 -5 1 -10
-4 -10 -6 0 -11 5 -11 10 0 6 2 10 4 10 3 0 8 -4 11 -10z m3555 -14 c0 -3 -4
-8 -10 -11 -5 -3 -10 -1 -10 4 0 6 5 11 10 11 6 0 10 -2 10 -4z m-3110 -16 c0
-5 -2 -10 -4 -10 -3 0 -8 5 -11 10 -3 6 -1 10 4 10 6 0 11 -4 11 -10z m-890
-20 c0 -5 -4 -10 -9 -10 -6 0 -13 5 -16 10 -3 6 1 10 9 10 9 0 16 -4 16 -10z
m1290 -120 c0 -5 -4 -10 -10 -10 -5 0 -10 5 -10 10 0 6 5 10 10 10 6 0 10 -4
10 -10z m1495 0 c3 -5 -1 -10 -10 -10 -9 0 -13 5 -10 10 3 6 8 10 10 10 2 0 7
-4 10 -10z m-4955 -10 c0 -5 -4 -10 -10 -10 -5 0 -10 5 -10 10 0 6 5 10 10 10
6 0 10 -4 10 -10z m2370 0 c0 -5 -5 -10 -11 -10 -5 0 -7 5 -4 10 3 6 8 10 11
10 2 0 4 -4 4 -10z m4920 -70 c0 -5 -4 -10 -10 -10 -5 0 -10 5 -10 10 0 6 5
10 10 10 6 0 10 -4 10 -10z m307 -16 c-3 -3 -12 -4 -19 -1 -8 3 -5 6 6 6 11 1
17 -2 13 -5z m-6697 -14 c0 -5 -2 -10 -4 -10 -3 0 -8 5 -11 10 -3 6 -1 10 4
10 6 0 11 -4 11 -10z m6440 -25 c-15 -18 -10 -18 25 -5 17 7 24 7 20 0 -3 -6
-12 -10 -20 -10 -8 0 -17 -5 -21 -11 -4 -8 0 -9 15 -4 38 12 22 -13 -16 -26
-51 -17 -63 -19 -63 -8 0 5 5 9 11 9 5 0 7 5 4 10 -4 7 -13 6 -26 -1 -12 -6
-23 -8 -26 -6 -4 5 94 67 106 67 2 0 -2 -7 -9 -15z m-849 -19 c-15 -18 21 -28
56 -15 60 23 64 7 5 -22 -54 -27 -67 -30 -86 -20 -37 20 -73 -1 -101 -61 -24
-53 -24 -68 0 -68 10 0 11 -7 4 -27 -18 -56 -21 -62 -34 -57 -22 9 -30 -18
-10 -33 18 -12 18 -13 -3 -13 -12 0 -22 5 -22 11 0 8 -5 8 -15 -1 -8 -7 -16
-11 -16 -9 -11 35 -4 61 22 89 16 17 27 35 24 39 -2 5 1 11 9 14 9 4 13 17 11
39 -4 39 4 51 63 97 36 27 65 42 101 50 2 1 -2 -5 -8 -13z m-3201 -4 c0 -13
-12 -22 -22 -16 -10 6 -1 24 13 24 5 0 9 -4 9 -8z m4150 -13 c0 -6 -4 -7 -10
-4 -5 3 -10 11 -10 16 0 6 5 7 10 4 6 -3 10 -11 10 -16z m-4495 -9 c3 -5 1
-10 -4 -10 -6 0 -11 5 -11 10 0 6 2 10 4 10 3 0 8 -4 11 -10z m-3265 -20 c0
-5 -4 -10 -10 -10 -5 0 -10 5 -10 10 0 6 5 10 10 10 6 0 10 -4 10 -10z m7540
-1 c12 -8 10 -9 -7 -4 -18 5 -22 3 -17 -9 3 -8 11 -14 17 -13 7 1 12 -5 12
-13 0 -8 -9 -16 -20 -18 -33 -5 -65 -24 -65 -39 0 -7 -7 -13 -15 -13 -8 0 -15
-4 -15 -9 0 -12 -53 -22 -63 -12 -12 12 95 102 113 96 12 -5 13 -4 3 6 -19 19
-16 27 10 32 12 2 24 5 27 5 3 1 12 -3 20 -9z m-763 -39 c0 -16 -3 -30 -6 -30
-23 1 -47 46 -28 54 26 10 34 5 34 -24z m1233 26 c0 -3 -4 -8 -10 -11 -5 -3
-10 -1 -10 4 0 6 5 11 10 11 6 0 10 -2 10 -4z m-1480 -21 c0 -8 -4 -15 -10
-15 -5 0 -10 7 -10 15 0 8 5 15 10 15 6 0 10 -7 10 -15z m-2500 -5 c0 -5 -7
-10 -16 -10 -8 0 -12 5 -9 10 3 6 10 10 16 10 5 0 9 -4 9 -10z m-940 -10 c0
-5 -4 -10 -10 -10 -5 0 -10 5 -10 10 0 6 5 10 10 10 6 0 10 -4 10 -10z m2360
-5 c0 -8 -4 -15 -9 -15 -13 0 -22 16 -14 24 11 11 23 6 23 -9z m-140 -35 c0
-5 -5 -10 -11 -10 -5 0 -7 5 -4 10 3 6 8 10 11 10 2 0 4 -4 4 -10z m1450 5 c0
-2 -9 -9 -20 -15 -12 -6 -20 -7 -20 -1 0 5 8 12 18 14 9 3 18 5 20 6 1 0 2 -1
2 -4z m-4366 -36 c-3 -5 -10 -7 -15 -3 -5 3 -7 10 -3 15 3 5 10 7 15 3 5 -3 7
-10 3 -15z m5601 2 c7 -12 -12 -24 -25 -16 -11 7 -4 25 10 25 5 0 11 -4 15 -9z
m-4605 -21 c0 -5 -4 -10 -10 -10 -5 0 -10 5 -10 10 0 6 5 10 10 10 6 0 10 -4
10 -10z m-1985 -40 c-5 -8 -11 -8 -17 -2 -6 6 -7 16 -3 22 5 8 11 8 17 2 6 -6
7 -16 3 -22z m2570 10 c0 -8 -8 -16 -17 -18 -13 -2 -18 3 -18 18 0 15 5 20 18
18 9 -2 17 -10 17 -18z m3370 10 c-3 -5 -16 -10 -28 -9 -21 0 -21 1 -2 9 28
12 37 12 30 0z m-3095 -10 c0 -5 -4 -10 -10 -10 -5 0 -10 5 -10 10 0 6 5 10
10 10 6 0 10 -4 10 -10z m1970 0 c0 -5 -4 -10 -10 -10 -5 0 -10 5 -10 10 0 6
5 10 10 10 6 0 10 -4 10 -10z m-4500 -4 c0 -11 -19 -15 -25 -6 -3 5 1 10 9 10
9 0 16 -2 16 -4z m5585 -16 c16 -7 17 -9 3 -9 -9 -1 -22 -3 -30 -4 -7 -2 -10
-2 -5 0 4 3 5 9 1 14 -6 11 4 11 31 -1z m135 -5 c0 -8 -4 -15 -10 -15 -5 0
-10 7 -10 15 0 8 5 15 10 15 6 0 10 -7 10 -15z m-251 -18 c-38 -16 -79 -19
-79 -7 0 6 8 9 18 6 9 -3 28 1 42 9 14 7 29 11 34 7 5 -3 -1 -10 -15 -15z
m861 3 c0 -21 -15 -27 -25 -10 -7 12 2 30 16 30 5 0 9 -9 9 -20z m-7490 0 c0
-5 -2 -10 -4 -10 -3 0 -8 5 -11 10 -3 6 -1 10 4 10 6 0 11 -4 11 -10z m1370 6
c0 -11 -19 -15 -25 -6 -3 5 1 10 9 10 9 0 16 -2 16 -4z m205 -6 c3 -5 1 -10
-4 -10 -6 0 -11 5 -11 10 0 6 2 10 4 10 3 0 8 -4 11 -10z m-2315 -20 c0 -5 -4
-10 -10 -10 -5 0 -10 5 -10 10 0 6 5 10 10 10 6 0 10 -4 10 -10z m365 0 c3 -5
1 -10 -4 -10 -6 0 -11 5 -11 10 0 6 2 10 4 10 3 0 8 -4 11 -10z m6740 0 c3 -6
-1 -7 -9 -4 -18 7 -21 14 -7 14 6 0 13 -4 16 -10z m-2985 -4 c0 -2 -7 -9 -15
-16 -13 -11 -14 -10 -9 4 5 14 24 23 24 12z m3148 -9 c4 7 13 9 19 5 17 -10
-12 -46 -31 -39 -10 4 -13 1 -9 -8 3 -8 9 -12 14 -9 5 3 9 0 9 -5 0 -6 -4 -11
-9 -11 -13 0 -28 22 -33 52 -4 24 -3 25 14 15 14 -9 20 -9 26 0z m-5493 -6 c3
-5 1 -12 -5 -16 -5 -3 -10 1 -10 9 0 18 6 21 15 7z m5225 -52 c14 -15 37 -31
53 -35 33 -8 35 -22 5 -33 l-23 -8 23 -7 c22 -7 30 -31 12 -38 -5 -1 -11 -14
-12 -28 -4 -31 -38 -71 -45 -52 -3 7 -14 17 -25 23 -15 8 -19 8 -14 0 4 -6 2
-11 -4 -11 -14 0 -40 -25 -40 -39 0 -15 -17 -14 -26 1 -4 6 5 22 22 36 28 24
28 25 2 8 -15 -9 -33 -16 -40 -16 -7 0 -19 -9 -26 -21 l-13 -21 -23 21 c-28
26 -24 71 5 71 11 0 19 5 19 10 0 6 7 10 16 10 8 0 12 5 8 11 -5 8 6 9 35 4
31 -5 48 -3 67 10 27 17 24 35 -6 35 -19 0 -80 48 -80 63 0 5 7 6 16 3 13 -5
14 -4 6 7 -9 10 -9 16 0 25 17 17 60 3 88 -29z m-5540 21 c0 -5 -4 -10 -10
-10 -5 0 -10 5 -10 10 0 6 5 10 10 10 6 0 10 -4 10 -10z m6040 -20 c0 -5 -4
-10 -10 -10 -5 0 -10 5 -10 10 0 6 5 10 10 10 6 0 10 -4 10 -10z m178 -8 c2
-7 -1 -12 -8 -12 -6 0 -9 4 -6 9 4 5 1 12 -4 14 -6 3 -5 4 2 3 6 -1 14 -8 16
-14z m-7568 -12 c0 -5 -4 -10 -10 -10 -5 0 -10 5 -10 10 0 6 5 10 10 10 6 0
10 -4 10 -10z m3705 0 c3 -5 -1 -10 -9 -10 -9 0 -16 5 -16 10 0 6 4 10 9 10 6
0 13 -4 16 -10z m3434 -6 c3 -3 0 -8 -6 -12 -14 -9 -50 -63 -78 -116 -11 -21
-25 -41 -32 -43 -7 -3 -13 -12 -13 -20 0 -8 -4 -11 -10 -8 -5 3 -10 2 -10 -4
0 -6 -7 -8 -15 -4 -12 4 -7 13 22 38 38 33 68 102 62 141 -6 32 11 47 44 40
17 -3 33 -9 36 -12z m-3959 -4 c0 -5 -2 -10 -4 -10 -3 0 -8 5 -11 10 -3 6 -1
10 4 10 6 0 11 -4 11 -10z m3025 -40 c3 -5 1 -10 -4 -10 -6 0 -11 5 -11 10 0
6 2 10 4 10 3 0 8 -4 11 -10z m-2065 -20 c0 -5 -2 -10 -4 -10 -3 0 -8 5 -11
10 -3 6 -1 10 4 10 6 0 11 -4 11 -10z m2733 3 c-7 -2 -19 -2 -25 0 -7 3 -2 5
12 5 14 0 19 -2 13 -5z m-5253 -23 c0 -5 -5 -10 -11 -10 -5 0 -7 5 -4 10 3 6
8 10 11 10 2 0 4 -4 4 -10z m6376 -3 c4 -3 -5 -12 -20 -18 -14 -7 -26 -19 -26
-26 0 -16 -56 -16 -78 0 -8 7 -22 6 -38 -2 -32 -14 -32 -14 -30 6 2 25 40 43
78 37 18 -3 44 -1 58 4 27 10 45 10 56 -1z m-4946 -7 c0 -5 -2 -10 -4 -10 -3
0 -8 5 -11 10 -3 6 -1 10 4 10 6 0 11 -4 11 -10z m-3090 -20 c0 -5 -7 -10 -16
-10 -8 0 -12 5 -9 10 3 6 10 10 16 10 5 0 9 -4 9 -10z m990 -20 c0 -5 -4 -10
-10 -10 -5 0 -10 5 -10 10 0 6 5 10 10 10 6 0 10 -4 10 -10z m6120 -20 c0 -5
-2 -10 -4 -10 -3 0 -8 5 -11 10 -3 6 -1 10 4 10 6 0 11 -4 11 -10z m820 -10
c0 -5 -4 -10 -10 -10 -5 0 -10 5 -10 10 0 6 5 10 10 10 6 0 10 -4 10 -10z
m-3280 -60 c0 -5 -4 -10 -10 -10 -5 0 -10 5 -10 10 0 6 5 10 10 10 6 0 10 -4
10 -10z m1230 6 c0 -3 -4 -8 -10 -11 -5 -3 -10 -1 -10 4 0 6 5 11 10 11 6 0
10 -2 10 -4z m2280 -6 c0 -5 -4 -10 -10 -10 -5 0 -10 5 -10 10 0 6 5 10 10 10
6 0 10 -4 10 -10z m-1320 -20 c0 -5 -9 -10 -20 -10 -11 0 -20 5 -20 10 0 6 9
10 20 10 11 0 20 -4 20 -10z m-7290 -20 c0 -5 -4 -10 -10 -10 -5 0 -10 5 -10
10 0 6 5 10 10 10 6 0 10 -4 10 -10z m7394 -19 c15 -56 16 -71 4 -71 -23 0
-33 14 -35 51 -2 26 2 36 12 36 8 0 17 -7 19 -16z m-5174 5 c0 -3 -4 -8 -10
-11 -5 -3 -10 -1 -10 4 0 6 5 11 10 11 6 0 10 -2 10 -4z m1310 -26 c0 -5 -4
-10 -10 -10 -5 0 -10 5 -10 10 0 6 5 10 10 10 6 0 10 -4 10 -10z m1060 -11 c0
-5 -7 -9 -15 -9 -15 0 -20 12 -9 23 8 8 24 -1 24 -14z m-3480 1 c0 -5 -2 -10
-4 -10 -3 0 -8 5 -11 10 -3 6 -1 10 4 10 6 0 11 -4 11 -10z m4140 0 c0 -5 -4
-10 -10 -10 -5 0 -10 5 -10 10 0 6 5 10 10 10 6 0 10 -4 10 -10z m1230 -5 c0
-8 -4 -15 -10 -15 -5 0 -10 7 -10 15 0 8 5 15 10 15 6 0 10 -7 10 -15z m-4520
-26 c0 -5 -7 -9 -15 -9 -15 0 -20 12 -9 23 8 8 24 -1 24 -14z m3335 -42 c25
-36 17 -41 -15 -7 -25 27 -32 30 -51 20 -16 -9 -24 -9 -33 1 -8 9 -8 10 2 4 9
-4 15 0 19 13 4 18 7 19 34 5 16 -8 36 -24 44 -36z m875 43 c0 -5 -4 -10 -10
-10 -5 0 -10 5 -10 10 0 6 5 10 10 10 6 0 10 -4 10 -10z m1296 -12 c9 -14 -2
-21 -25 -13 -28 8 -28 35 -1 28 11 -3 23 -10 26 -15z m614 2 c0 -5 -4 -10 -10
-10 -5 0 -10 5 -10 10 0 6 5 10 10 10 6 0 10 -4 10 -10z m80 -6 c0 -9 -5 -14
-12 -12 -18 6 -21 28 -4 28 9 0 16 -7 16 -16z m-4720 -14 c0 -5 -7 -10 -15
-10 -8 0 -15 5 -15 10 0 6 7 10 15 10 8 0 15 -4 15 -10z m-2430 -40 c0 -5 -4
-10 -10 -10 -5 0 -10 5 -10 10 0 6 5 10 10 10 6 0 10 -4 10 -10z m-580 -10 c0
-5 -4 -10 -10 -10 -5 0 -10 5 -10 10 0 6 5 10 10 10 6 0 10 -4 10 -10z m3625
-11 c11 -16 1 -19 -13 -3 -7 8 -8 14 -3 14 5 0 13 -5 16 -11z m3619 -10 c-3
-5 -10 -7 -15 -3 -5 3 -7 10 -3 15 3 5 10 7 15 3 5 -3 7 -10 3 -15z m-5513 -2
c-1 -12 -15 -9 -19 4 -3 6 1 10 8 8 6 -3 11 -8 11 -12z m5228 -38 c8 -3 15
-18 16 -34 2 -17 1 -24 -2 -17 -2 6 -12 12 -22 12 -9 0 -24 9 -33 20 -16 18
-16 20 0 29 9 5 19 6 22 2 3 -5 11 -10 19 -12z m66 1 c4 -6 12 -7 18 -3 7 4 6
0 -2 -10 -18 -23 -37 -21 -37 3 0 21 11 26 21 10z m-5145 -10 c0 -5 -4 -10
-10 -10 -5 0 -10 5 -10 10 0 6 5 10 10 10 6 0 10 -4 10 -10z m1080 -10 c0 -5
-4 -10 -10 -10 -5 0 -10 5 -10 10 0 6 5 10 10 10 6 0 10 -4 10 -10z m3595 0
c4 -6 -4 -19 -16 -29 -22 -17 -24 -17 -35 -2 -7 9 -10 18 -8 21 3 2 9 -2 13
-9 7 -10 10 -9 16 8 7 23 20 27 30 11z m65 0 c0 -5 -2 -10 -4 -10 -3 0 -8 5
-11 10 -3 6 -1 10 4 10 6 0 11 -4 11 -10z m-3360 -36 c0 -8 -5 -12 -10 -9 -6
4 -8 11 -5 16 9 14 15 11 15 -7z m-230 -14 c0 -5 -4 -10 -10 -10 -5 0 -10 5
-10 10 0 6 5 10 10 10 6 0 10 -4 10 -10z m1940 -5 c0 -8 -2 -15 -4 -15 -2 0
-6 7 -10 15 -3 8 -1 15 4 15 6 0 10 -7 10 -15z m1962 -8 c-12 -14 -5 -31 18
-40 10 -4 8 -6 -7 -6 -13 -1 -32 8 -43 19 -25 25 -25 30 -1 30 11 0 23 5 26
11 4 6 9 8 12 5 3 -3 1 -11 -5 -19z m-7022 -10 c0 -8 -3 -17 -7 -20 -9 -9 -34
13 -27 24 8 14 34 11 34 -4z m7140 3 c0 -5 -5 -10 -11 -10 -5 0 -7 5 -4 10 3
6 8 10 11 10 2 0 4 -4 4 -10z m-507 -12 c-2 -5 -11 -8 -19 -8 -8 0 -12 -4 -9
-10 8 -12 -15 -13 -34 -1 -9 6 -10 11 -2 15 6 4 11 2 11 -4 0 -6 5 -8 10 -5 6
4 8 10 5 15 -3 4 6 7 19 6 13 0 22 -4 19 -8z m74 -10 c-3 -8 -6 -5 -6 6 -1 11
2 17 5 13 3 -3 4 -12 1 -19z m-6427 -23 c0 -8 -7 -15 -15 -15 -16 0 -20 12 -8
23 11 12 23 8 23 -8z m4713 -25 c3 -10 -1 -24 -9 -31 -9 -7 -14 -8 -14 -1 0 6
6 13 13 15 6 3 0 6 -15 6 -44 1 -35 21 13 30 4 0 9 -8 12 -19z m1529 -2 c-7
-7 -12 -8 -12 -2 0 14 12 26 19 19 2 -3 -1 -11 -7 -17z m365 6 c-3 -3 -12 -4
-19 -1 -8 3 -5 6 6 6 11 1 17 -2 13 -5z m-2907 -20 c0 -8 -5 -12 -10 -9 -6 4
-8 11 -5 16 9 14 15 11 15 -7z m1400 6 c0 -5 -4 -10 -10 -10 -5 0 -10 5 -10
10 0 6 5 10 10 10 6 0 10 -4 10 -10z m1530 -5 c0 -8 -4 -15 -10 -15 -5 0 -7 7
-4 15 4 8 8 15 10 15 2 0 4 -7 4 -15z m-3170 -5 c0 -5 -4 -10 -9 -10 -6 0 -13
5 -16 10 -3 6 1 10 9 10 9 0 16 -4 16 -10z m1365 -39 c-3 -5 -1 -12 5 -16 16
-10 12 -32 -7 -40 -14 -5 -15 -3 -6 5 8 9 8 20 -3 46 -19 44 -18 64 2 36 8
-12 13 -26 9 -31z m2065 14 c0 -8 -4 -15 -9 -15 -13 0 -22 16 -14 24 11 11 23
6 23 -9z m-277 -2 c-7 -2 -19 -2 -25 0 -7 3 -2 5 12 5 14 0 19 -2 13 -5z m916
-7 c10 -6 12 -5 7 3 -6 8 -1 8 18 -1 l26 -11 -27 -17 c-30 -19 -43 -17 -43 5
0 8 -8 12 -20 10 -22 -4 -28 11 -7 18 16 5 29 3 46 -7z m-69 -6 c0 -5 -2 -10
-4 -10 -3 0 -8 5 -11 10 -3 6 -1 10 4 10 6 0 11 -4 11 -10z m-2352 -11 c-2 -6
-8 -10 -13 -10 -5 0 -11 4 -13 10 -2 6 4 11 13 11 9 0 15 -5 13 -11z m2702 -9
c0 -5 -4 -10 -10 -10 -5 0 -10 5 -10 10 0 6 5 10 10 10 6 0 10 -4 10 -10z
m-1135 -30 c11 -14 16 -22 11 -18 -5 4 -14 0 -21 -9 -11 -14 -13 -13 -19 11
-5 21 1 57 8 44 0 -2 10 -14 21 -28z m-6440 10 c3 -5 1 -10 -4 -10 -6 0 -11 5
-11 10 0 6 2 10 4 10 3 0 8 -4 11 -10z m3730 -10 c0 -8 -8 -16 -17 -18 -13 -2
-18 3 -18 18 0 15 5 20 18 18 9 -2 17 -10 17 -18z m3135 10 c0 -5 -4 -10 -10
-10 -5 0 -10 5 -10 10 0 6 5 10 10 10 6 0 10 -4 10 -10z m-329 -31 c6 -23 4
-26 -12 -22 -11 3 -19 9 -19 13 0 5 -3 16 -6 25 -5 13 -2 16 11 14 10 -2 22
-16 26 -30z m-6611 11 c0 -5 -5 -10 -11 -10 -5 0 -7 5 -4 10 3 6 8 10 11 10 2
0 4 -4 4 -10z m355 -21 c0 -7 -8 -15 -17 -17 -18 -3 -25 18 -11 32 10 10 28 1
28 -15z m1355 11 c0 -5 -5 -10 -11 -10 -5 0 -7 5 -4 10 3 6 8 10 11 10 2 0 4
-4 4 -10z m2880 0 c0 -5 -4 -10 -10 -10 -5 0 -10 5 -10 10 0 6 5 10 10 10 6 0
10 -4 10 -10z m83 -15 c-3 -9 -8 -14 -10 -11 -3 3 -2 9 2 15 9 16 15 13 8 -4z
m-3163 -5 c0 -5 -4 -10 -10 -10 -5 0 -10 5 -10 10 0 6 5 10 10 10 6 0 10 -4
10 -10z m3145 -70 c2 -19 1 -29 -2 -22 -3 6 -9 9 -15 6 -7 -4 -7 0 0 13 7 12
7 25 1 34 -5 7 -8 23 -8 34 1 32 21 -22 24 -65z m-4695 66 c0 -3 -4 -8 -10
-11 -5 -3 -10 -1 -10 4 0 6 5 11 10 11 6 0 10 -2 10 -4z m5150 -6 c0 -5 -4
-10 -10 -10 -5 0 -10 5 -10 10 0 6 5 10 10 10 6 0 10 -4 10 -10z m1440 -13 c0
-36 20 -50 42 -30 10 9 18 12 18 7 -1 -5 -18 -21 -40 -36 l-39 -27 -15 21
c-13 18 -13 22 1 36 10 10 12 17 5 20 -15 5 -3 32 14 32 8 0 14 -10 14 -23z
m-2610 3 c0 -5 -4 -10 -10 -10 -5 0 -10 5 -10 10 0 6 5 10 10 10 6 0 10 -4 10
-10z m-1800 -36 c0 -17 -22 -14 -28 4 -2 7 3 12 12 12 9 0 16 -7 16 -16z
m2200 6 c0 -5 -5 -10 -11 -10 -5 0 -7 5 -4 10 3 6 8 10 11 10 2 0 4 -4 4 -10z
m2770 -11 c0 -5 -4 -9 -10 -9 -5 0 -10 7 -10 16 0 8 5 12 10 9 6 -3 10 -10 10
-16z m-110 -3 c0 -11 -19 -15 -25 -6 -3 5 1 10 9 10 9 0 16 -2 16 -4z m770
-16 c0 -5 -4 -10 -10 -10 -5 0 -10 5 -10 10 0 6 5 10 10 10 6 0 10 -4 10 -10z
m-7110 -30 c0 -5 -4 -10 -10 -10 -5 0 -10 5 -10 10 0 6 5 10 10 10 6 0 10 -4
10 -10z m5900 1 c0 -15 -33 -22 -44 -10 -8 9 -7 10 6 6 10 -3 20 -2 23 3 8 12
15 13 15 1z m-6480 -27 c0 -9 -5 -14 -12 -12 -18 6 -21 28 -4 28 9 0 16 -7 16
-16z m3000 -14 c0 -5 -4 -10 -10 -10 -5 0 -10 5 -10 10 0 6 5 10 10 10 6 0 10
-4 10 -10z m3694 -32 c6 -4 7 -10 3 -14 -11 -12 -36 16 -30 34 6 13 7 13 11 1
3 -7 10 -17 16 -21z m-2532 10 c21 -17 31 -48 15 -48 -19 0 -34 13 -41 38 -8
25 2 28 26 10z m983 2 c3 -5 1 -10 -4 -10 -6 0 -11 5 -11 10 0 6 2 10 4 10 3
0 8 -4 11 -10z m95 0 c0 -5 -4 -10 -10 -10 -5 0 -10 5 -10 10 0 6 5 10 10 10
6 0 10 -4 10 -10z m-240 -10 c0 -5 -4 -10 -10 -10 -5 0 -10 5 -10 10 0 6 5 10
10 10 6 0 10 -4 10 -10z m-530 -20 c-6 -11 -13 -20 -16 -20 -2 0 0 9 6 20 6
11 13 20 16 20 2 0 0 -9 -6 -20z m560 10 c0 -5 -4 -10 -10 -10 -5 0 -10 5 -10
10 0 6 5 10 10 10 6 0 10 -4 10 -10z m-3440 -10 c0 -5 -4 -10 -10 -10 -5 0
-10 5 -10 10 0 6 5 10 10 10 6 0 10 -4 10 -10z m2534 -5 c-4 -8 -12 -15 -20
-15 -8 0 -14 7 -14 15 0 8 9 15 20 15 13 0 18 -5 14 -15z m136 0 c0 -8 -4 -15
-10 -15 -5 0 -10 7 -10 15 0 8 5 15 10 15 6 0 10 -7 10 -15z m-2550 1 c0 -3
-4 -8 -10 -11 -5 -3 -10 -1 -10 4 0 6 5 11 10 11 6 0 10 -2 10 -4z m1480 -6
c0 -5 -4 -10 -10 -10 -5 0 -10 5 -10 10 0 6 5 10 10 10 6 0 10 -4 10 -10z
m1231 3 c-11 -4 -11 -7 0 -14 7 -4 10 -11 6 -16 -9 -9 -28 17 -21 29 3 4 11 8
17 7 8 0 7 -3 -2 -6z m679 3 c0 -3 -4 -8 -10 -11 -5 -3 -10 -1 -10 4 0 6 5 11
10 11 6 0 10 -2 10 -4z m650 -10 c0 -3 -4 -8 -10 -11 -5 -3 -10 -1 -10 4 0 6
5 11 10 11 6 0 10 -2 10 -4z m-2367 -41 c-10 -7 -14 -17 -10 -21 4 -5 12 -3
16 4 6 9 15 7 36 -10 16 -12 26 -17 22 -11 -4 6 -3 14 3 18 5 3 10 -1 10 -10
0 -9 7 -27 16 -40 13 -20 14 -28 4 -40 -10 -12 -10 -15 1 -16 8 0 5 -4 -6 -9
-29 -12 -75 -12 -75 1 0 7 -10 9 -26 5 -17 -5 -23 -3 -19 4 3 5 1 10 -4 10 -6
0 -11 5 -11 10 0 6 7 10 16 10 10 0 14 6 11 15 -4 8 -2 17 3 20 5 3 6 13 3 21
-5 13 -8 13 -15 2 -7 -9 -8 -7 -3 7 4 11 8 25 8 32 0 7 4 10 9 7 4 -3 8 0 8 6
0 6 5 8 11 5 6 -5 4 -12 -8 -20z m464 -17 c-3 -8 -6 -5 -6 6 -1 11 2 17 5 13
3 -3 4 -12 1 -19z m-222 1 c11 -17 -1 -21 -15 -4 -8 9 -8 15 -2 15 6 0 14 -5
17 -11z m4135 -9 c0 -5 -4 -10 -10 -10 -5 0 -10 5 -10 10 0 6 5 10 10 10 6 0
10 -4 10 -10z m-3962 -25 c0 -30 -9 -32 -25 -5 -11 16 -10 18 2 14 8 -4 15 -1
15 5 0 6 2 11 4 11 2 0 4 -11 4 -25z m98 -2 c-2 -9 -8 -19 -15 -21 -14 -5 -11
20 4 30 14 10 14 10 11 -9z m-2006 -3 c0 -5 -4 -10 -10 -10 -5 0 -10 5 -10 10
0 6 5 10 10 10 6 0 10 -4 10 -10z m1300 0 c0 -5 -4 -10 -10 -10 -5 0 -10 5
-10 10 0 6 5 10 10 10 6 0 10 -4 10 -10z m670 -21 c0 -18 -5 -20 -32 -14 l-33
6 25 -15 c14 -8 29 -11 35 -6 6 5 24 10 40 12 27 3 30 1 27 -24 -2 -18 1 -28
10 -28 10 0 9 -3 -2 -10 -13 -8 -12 -10 3 -10 9 0 17 -6 17 -12 0 -9 3 -8 10
2 5 8 13 11 17 6 4 -4 1 -13 -7 -19 -17 -13 -19 -25 -7 -44 4 -6 3 -14 -2 -17
-5 -4 2 -19 15 -33 16 -18 21 -29 14 -31 -9 -3 -9 -7 1 -13 10 -6 7 -8 -9 -6
-14 1 -18 5 -12 11 14 14 13 29 -2 20 -6 -4 -8 -3 -5 2 3 6 -3 16 -15 23 -11
7 -17 8 -14 3 3 -5 -5 -9 -19 -9 -15 0 -22 4 -18 11 3 6 0 6 -8 -1 -17 -17
-37 -17 -21 -1 17 17 15 28 -4 21 -13 -5 -15 -2 -9 18 l7 24 -17 -22 c-19 -27
-28 -28 -49 -8 -8 9 -21 14 -28 13 -7 -2 -13 4 -13 12 0 8 -4 21 -8 28 -6 8
-1 12 17 12 14 0 27 4 30 9 3 4 -12 5 -34 1 -22 -4 -37 -3 -34 1 3 5 11 9 18
9 8 0 13 8 12 17 0 10 9 20 24 25 25 8 25 8 -2 4 -16 -2 -33 3 -39 10 -8 10
-5 11 13 6 21 -5 22 -4 9 11 -8 10 -9 17 -3 17 6 0 14 -5 17 -10 8 -13 47 -2
58 17 11 18 27 7 27 -18z m3730 16 c0 -8 -4 -15 -10 -15 -5 0 -7 7 -4 15 4 8
8 15 10 15 2 0 4 -7 4 -15z m-7430 -10 c0 -8 -7 -15 -15 -15 -16 0 -20 12 -8
23 11 12 23 8 23 -8z m3360 6 c0 -6 -4 -13 -10 -16 -5 -3 -10 1 -10 9 0 9 5
16 10 16 6 0 10 -4 10 -9z m1310 -11 c0 -5 -4 -10 -10 -10 -5 0 -10 5 -10 10
0 6 5 10 10 10 6 0 10 -4 10 -10z m924 2 c3 -5 -2 -19 -11 -31 -11 -17 -18
-20 -27 -11 -8 8 -7 15 6 24 10 7 15 16 11 19 -3 4 -1 7 5 7 6 0 13 -4 16 -8z
m-2034 -12 c0 -5 -5 -10 -11 -10 -5 0 -7 5 -4 10 3 6 8 10 11 10 2 0 4 -4 4
-10z m-2482 -11 c-2 -6 -8 -10 -13 -10 -5 0 -11 4 -13 10 -2 6 4 11 13 11 9 0
15 -5 13 -11z m1852 -4 c0 -9 -6 -12 -15 -9 -8 4 -12 10 -9 15 8 14 24 10 24
-6z m-1888 -20 c0 -5 -5 -11 -11 -13 -6 -2 -11 4 -11 13 0 9 5 15 11 13 6 -2
11 -8 11 -13z m2415 -1 c-3 -3 -12 -4 -19 -1 -8 3 -5 6 6 6 11 1 17 -2 13 -5z
m123 -5 c0 -4 -4 -11 -10 -14 -5 -3 -10 -1 -10 4 0 24 -19 9 -22 -16 -4 -35
-32 -37 -37 -3 -1 14 -7 28 -12 31 -5 3 13 6 41 6 27 0 50 -3 50 -8z m250 -15
c0 -8 -4 -12 -10 -9 -5 3 -10 10 -10 16 0 5 5 9 10 9 6 0 10 -7 10 -16z
m-4190 -15 c0 -5 -4 -9 -10 -9 -5 0 -10 7 -10 16 0 8 5 12 10 9 6 -3 10 -10
10 -16z m1990 7 c0 -3 -4 -8 -10 -11 -5 -3 -10 -1 -10 4 0 6 5 11 10 11 6 0
10 -2 10 -4z m1718 -8 c-3 -7 3 -19 11 -28 9 -8 12 -12 7 -7 -17 12 -26 8 -20
-10 5 -15 4 -15 -4 -3 -6 8 -8 18 -6 22 3 4 0 8 -6 8 -7 0 -6 5 2 15 16 18 21
19 16 3z m512 2 c0 -5 -4 -10 -10 -10 -5 0 -10 5 -10 10 0 6 5 10 10 10 6 0
10 -4 10 -10z m-1750 -4 c0 -3 -4 -8 -10 -11 -5 -3 -10 -1 -10 4 0 6 5 11 10
11 6 0 10 -2 10 -4z m1324 -15 c3 -5 -6 -11 -19 -14 -14 -2 -28 0 -32 6 -3 6
-1 7 5 3 7 -4 12 -2 12 3 0 13 27 15 34 2z m-3794 -11 c0 -5 -10 -10 -22 -9
-22 0 -22 1 -3 9 11 5 21 9 23 9 1 1 2 -3 2 -9z m1850 -20 c0 -5 -4 -10 -10
-10 -5 0 -10 5 -10 10 0 6 5 10 10 10 6 0 10 -4 10 -10z m2360 -6 c0 -2 -7 -4
-15 -4 -8 0 -15 4 -15 10 0 5 7 7 15 4 8 -4 15 -8 15 -10z m-310 -13 c0 -5 -7
-14 -15 -21 -18 -15 -42 1 -31 19 8 13 46 15 46 2z m1480 -11 c0 -5 -4 -10
-10 -10 -5 0 -10 5 -10 10 0 6 5 10 10 10 6 0 10 -4 10 -10z m-4742 -12 c-6
-18 -28 -21 -28 -4 0 9 7 16 16 16 9 0 14 -5 12 -12z m2555 -8 c7 0 18 -9 25
-20 7 -11 8 -20 2 -20 -5 0 -8 -6 -6 -12 1 -7 1 -10 -1 -5 -3 4 -8 5 -13 2 -4
-3 -7 3 -6 13 0 9 -5 16 -11 15 -7 -2 -13 3 -13 10 0 8 -4 7 -10 -3 -5 -8 -10
-12 -10 -7 0 14 25 47 28 37 2 -5 9 -10 15 -10z m47 -13 c0 -5 -4 -5 -10 -2
-5 3 -10 14 -10 23 0 15 2 15 10 2 5 -8 10 -19 10 -23z m1840 23 c0 -5 -7 -10
-16 -10 -8 0 -12 5 -9 10 3 6 10 10 16 10 5 0 9 -4 9 -10z m-5253 -26 c-9 -9
-28 6 -21 18 4 6 10 6 17 -1 6 -6 8 -13 4 -17z m4430 11 c0 -8 -4 -12 -9 -9
-5 3 -6 10 -3 15 9 13 12 11 12 -6z m-3463 -10 c-4 -8 -1 -15 7 -15 7 0 9 -3
6 -6 -9 -9 -38 16 -31 27 9 15 24 10 18 -6z m2254 -3 c2 -7 -3 -12 -12 -12 -9
0 -16 7 -16 16 0 17 22 14 28 -4z m899 -4 c-3 -8 -6 -5 -6 6 -1 11 2 17 5 13
3 -3 4 -12 1 -19z m3723 12 c0 -5 -4 -10 -10 -10 -5 0 -10 5 -10 10 0 6 5 10
10 10 6 0 10 -4 10 -10z m-6090 -4 c0 -3 -4 -8 -10 -11 -5 -3 -10 -1 -10 4 0
6 5 11 10 11 6 0 10 -2 10 -4z m2400 -27 c0 -6 7 -9 15 -6 8 4 17 2 20 -3 7
-11 -15 -13 -39 -4 -18 7 -22 24 -6 24 6 0 10 -5 10 -11z m255 -1 c4 -3 2 -9
-3 -12 -5 -3 -15 1 -21 8 -10 11 -9 14 3 12 9 -1 18 -5 21 -8z m3435 -18 c-8
-6 -22 -10 -30 -10 -8 0 -4 6 10 13 27 15 44 12 20 -3z m-7700 6 c0 -3 -4 -8
-10 -11 -5 -3 -10 -1 -10 4 0 6 5 11 10 11 6 0 10 -2 10 -4z m5582 -13 c-6 -2
-9 -10 -6 -15 4 -7 2 -8 -5 -4 -13 9 -5 26 12 25 9 0 8 -2 -1 -6z m2172 -1 c3
-5 -1 -9 -9 -9 -8 0 -15 4 -15 9 0 4 4 8 9 8 6 0 12 -4 15 -8z m-6164 -16 c0
-3 -4 -8 -10 -11 -5 -3 -10 -1 -10 4 0 6 5 11 10 11 6 0 10 -2 10 -4z m1564
-11 c-22 -17 -34 -19 -34 -6 0 5 8 12 18 14 32 9 36 7 16 -8z m-2564 -10 c0
-8 -4 -15 -10 -15 -5 0 -10 7 -10 15 0 8 5 15 10 15 6 0 10 -7 10 -15z m3520
5 c0 -5 -5 -10 -11 -10 -5 0 -7 5 -4 10 3 6 8 10 11 10 2 0 4 -4 4 -10z m55 0
c3 -5 1 -10 -4 -10 -6 0 -11 5 -11 10 0 6 2 10 4 10 3 0 8 -4 11 -10z m75 2
c0 -4 -9 -8 -19 -8 -11 0 -17 4 -15 8 3 4 12 8 20 8 8 0 14 -4 14 -8z m1250
-7 c0 -8 -4 -15 -10 -15 -5 0 -10 7 -10 15 0 8 5 15 10 15 6 0 10 -7 10 -15z
m-2450 1 c0 -3 -4 -8 -10 -11 -5 -3 -10 -1 -10 4 0 6 5 11 10 11 6 0 10 -2 10
-4z m4671 -14 c0 -4 2 -18 5 -32 3 -20 2 -22 -6 -8 -8 13 -17 15 -40 8 -18 -5
-30 -5 -30 1 0 5 -5 9 -10 9 -6 0 -10 -8 -8 -17 3 -20 -20 -27 -41 -14 -13 8
-13 12 -1 26 8 10 22 20 32 24 24 9 98 11 99 3z m-6281 -23 c0 -5 -4 -9 -10
-9 -5 0 -10 7 -10 16 0 8 5 12 10 9 6 -3 10 -10 10 -16z m2987 15 c-3 -3 -12
-4 -19 -1 -8 3 -5 6 6 6 11 1 17 -2 13 -5z m3383 -9 c0 -8 -4 -15 -10 -15 -5
0 -10 7 -10 15 0 8 5 15 10 15 6 0 10 -7 10 -15z m-4950 -15 c0 -5 -5 -10 -11
-10 -5 0 -7 5 -4 10 3 6 8 10 11 10 2 0 4 -4 4 -10z m1574 -5 c-4 -8 -7 -15
-9 -15 -2 0 -5 7 -9 15 -3 9 0 15 9 15 9 0 12 -6 9 -15z m-3437 -15 c5 -25
-13 -44 -33 -36 -18 7 -18 8 1 23 16 13 17 15 3 10 -10 -4 -18 -3 -18 2 0 25
43 26 47 1z m3490 -12 c-3 -7 -5 -2 -5 12 0 14 2 19 5 13 2 -7 2 -19 0 -25z
m-4837 12 c0 -5 -4 -10 -10 -10 -5 0 -10 5 -10 10 0 6 5 10 10 10 6 0 10 -4
10 -10z m4812 -32 c-6 -6 -12 -6 -16 1 -4 6 -2 11 3 11 6 0 12 8 12 18 1 15 2
15 6 -2 3 -10 0 -23 -5 -28z m-1525 0 c-3 -8 -6 -5 -6 6 -1 11 2 17 5 13 3 -3
4 -12 1 -19z m1449 0 c-1 -13 -7 -23 -11 -23 -4 0 -10 10 -11 23 -3 14 1 22
11 22 10 0 14 -8 11 -22z m-3371 2 c3 -5 1 -10 -4 -10 -6 0 -11 5 -11 10 0 6
2 10 4 10 3 0 8 -4 11 -10z m3178 -32 c-10 -18 -20 -6 -15 19 5 24 6 25 12 8
4 -11 6 -23 3 -27z m3447 21 c0 -5 -4 -9 -10 -9 -5 0 -10 7 -10 16 0 8 5 12
10 9 6 -3 10 -10 10 -16z m-6166 -33 c-8 -20 -23 -17 -38 7 -8 13 -7 20 4 27
20 12 43 -11 34 -34z m3643 27 c-14 -14 -19 -15 -29 -4 -11 10 -10 11 3 6 10
-4 20 -2 24 4 3 6 9 11 13 11 3 0 -1 -8 -11 -17z m-4427 -8 c0 -8 -7 -15 -15
-15 -16 0 -20 12 -8 23 11 12 23 8 23 -8z m2263 0 c-3 -9 -8 -14 -10 -11 -3 3
-2 9 2 15 9 16 15 13 8 -4z m307 9 c0 -3 -7 -12 -15 -20 -12 -13 -15 -13 -15
-1 0 7 3 17 7 20 8 8 23 9 23 1z m1780 -4 c0 -5 -2 -10 -4 -10 -3 0 -8 5 -11
10 -3 6 -1 10 4 10 6 0 11 -4 11 -10z m-1849 -33 c-10 -9 -11 -8 -5 6 3 10 9
15 12 12 3 -3 0 -11 -7 -18z m-324 7 c-3 -3 -12 -4 -19 -1 -8 3 -5 6 6 6 11 1
17 -2 13 -5z m-467 -14 c0 -5 -2 -10 -4 -10 -3 0 -8 5 -11 10 -3 6 -1 10 4 10
6 0 11 -4 11 -10z m605 -6 c-9 -9 -19 -13 -23 -10 -3 4 0 11 8 16 24 15 33 11
15 -6z m285 6 c0 -5 -2 -10 -4 -10 -3 0 -8 5 -11 10 -3 6 -1 10 4 10 6 0 11
-4 11 -10z m-1060 -4 c0 -3 -4 -8 -10 -11 -5 -3 -10 -1 -10 4 0 6 5 11 10 11
6 0 10 -2 10 -4z m5460 -60 c0 -3 -4 -8 -10 -11 -5 -3 -10 -1 -10 4 0 6 5 11
10 11 6 0 10 -2 10 -4z m103 -72 c-4 -12 -8 -13 -14 -3 -9 15 -2 32 11 24 5
-3 6 -13 3 -21z m-61 -36 c-6 -6 -15 -8 -19 -4 -4 4 -1 11 7 16 19 12 27 3 12
-12z m98 12 c0 -5 -7 -10 -15 -10 -8 0 -15 5 -15 10 0 6 7 10 15 10 8 0 15 -4
15 -10z m-6510 -10 c0 -5 -2 -10 -4 -10 -3 0 -8 5 -11 10 -3 6 -1 10 4 10 6 0
11 -4 11 -10z m1540 -14 c0 -3 -4 -8 -10 -11 -5 -3 -10 -1 -10 4 0 6 5 11 10
11 6 0 10 -2 10 -4z m-213 -28 c-3 -8 -6 -5 -6 6 -1 11 2 17 5 13 3 -3 4 -12
1 -19z m273 12 c0 -5 -2 -10 -4 -10 -3 0 -8 5 -11 10 -3 6 -1 10 4 10 6 0 11
-4 11 -10z m4810 -10 c0 -5 -4 -10 -10 -10 -5 0 -10 5 -10 10 0 6 5 10 10 10
6 0 10 -4 10 -10z m-5500 -30 c0 -5 -4 -10 -10 -10 -5 0 -10 5 -10 10 0 6 5
10 10 10 6 0 10 -4 10 -10z m-660 -20 c0 -5 -4 -10 -10 -10 -5 0 -10 5 -10 10
0 6 5 10 10 10 6 0 10 -4 10 -10z m590 -10 c0 -5 -4 -10 -10 -10 -5 0 -10 5
-10 10 0 6 5 10 10 10 6 0 10 -4 10 -10z m-1195 -10 c3 -6 -1 -13 -10 -16 -19
-8 -30 0 -20 15 8 14 22 14 30 1z m1665 0 c0 -5 -4 -10 -10 -10 -5 0 -10 5
-10 10 0 6 5 10 10 10 6 0 10 -4 10 -10z m-820 -30 c0 -5 -5 -10 -11 -10 -5 0
-7 5 -4 10 3 6 8 10 11 10 2 0 4 -4 4 -10z m380 -4 c0 -3 -4 -8 -10 -11 -5 -3
-10 -1 -10 4 0 6 5 11 10 11 6 0 10 -2 10 -4z m-1420 -41 c0 -8 -4 -15 -9 -15
-13 0 -22 16 -14 24 11 11 23 6 23 -9z m725 6 c3 -5 1 -12 -5 -16 -5 -3 -10 1
-10 9 0 18 6 21 15 7z m1645 -11 c0 -5 -5 -10 -11 -10 -5 0 -7 5 -4 10 3 6 8
10 11 10 2 0 4 -4 4 -10z m-940 -10 c0 -5 -4 -10 -10 -10 -5 0 -10 5 -10 10 0
6 5 10 10 10 6 0 10 -4 10 -10z m5747 -32 c-3 -8 -6 -5 -6 6 -1 11 2 17 5 13
3 -3 4 -12 1 -19z m-4640 -17 c0 -11 -5 -18 -9 -15 -4 3 -5 11 -1 19 7 21 12
19 10 -4z m-812 -11 c-3 -4 1 -10 7 -13 7 -2 9 -8 5 -13 -4 -5 -12 -2 -17 6
-13 20 -13 43 0 35 6 -4 8 -10 5 -15z m729 -5 c19 -30 20 -35 3 -35 -19 0 -50
37 -42 49 10 17 21 13 39 -14z m4706 -26 c0 -5 -4 -9 -10 -9 -5 0 -10 7 -10
16 0 8 5 12 10 9 6 -3 10 -10 10 -16z m-7240 1 c0 -5 -2 -10 -4 -10 -3 0 -8 5
-11 10 -3 6 -1 10 4 10 6 0 11 -4 11 -10z m2630 -3 c0 -7 -8 -17 -18 -24 -15
-9 -21 -7 -31 11 -11 17 -11 19 0 9 17 -17 29 -16 29 2 0 8 5 15 10 15 6 0 10
-6 10 -13z m-590 -37 c0 -5 15 -10 34 -10 36 0 55 -15 40 -30 -11 -11 -103
-19 -109 -10 -4 7 -2 7 52 12 17 2 35 7 40 12 4 5 -9 7 -29 4 -20 -2 -34 0
-32 4 3 4 0 8 -5 8 -6 0 -11 5 -11 10 0 6 5 10 10 10 6 0 10 -4 10 -10z m180
0 c0 -5 -2 -10 -4 -10 -3 0 -8 5 -11 10 -3 6 -1 10 4 10 6 0 11 -4 11 -10z
m4925 -10 c-3 -5 -1 -10 6 -10 7 0 10 -2 7 -5 -3 -3 -13 -2 -22 1 -14 5 -15 9
-4 15 17 11 20 11 13 -1z m-4582 -48 c-9 -35 -19 -25 -15 14 3 26 7 33 13 22
4 -8 5 -24 2 -36z m47 5 c0 -16 -18 3 -23 25 -6 22 -5 22 8 4 8 -11 15 -24 15
-29z m4600 23 c0 -5 -7 -10 -16 -10 -8 0 -12 5 -9 10 3 6 10 10 16 10 5 0 9
-4 9 -10z m-5765 -10 c-3 -5 -10 -10 -16 -10 -5 0 -9 5 -9 10 0 6 7 10 16 10
8 0 12 -4 9 -10z m-542 -7 c-7 -2 -19 -2 -25 0 -7 3 -2 5 12 5 14 0 19 -2 13
-5z m112 -4 c11 -17 -1 -21 -15 -4 -8 9 -8 15 -2 15 6 0 14 -5 17 -11z m445
-20 c0 -5 -7 -9 -15 -9 -15 0 -20 12 -9 23 8 8 24 -1 24 -14z m616 -16 c-4 -4
-12 -1 -19 7 -9 10 -9 11 1 6 7 -4 12 -2 13 6 0 11 2 11 6 0 3 -7 2 -16 -1
-19z m284 1 c0 -2 -12 -4 -26 -4 -14 0 -23 4 -20 9 6 8 46 4 46 -5z m30 12 c0
-3 -4 -8 -10 -11 -5 -3 -10 -1 -10 4 0 6 5 11 10 11 6 0 10 -2 10 -4z m85 -6
c-3 -5 -12 -10 -18 -10 -7 0 -6 4 3 10 19 12 23 12 15 0z m-968 -32 c-3 -7 -5
-2 -5 12 0 14 2 19 5 13 2 -7 2 -19 0 -25z m1028 12 c-3 -5 -11 -10 -16 -10
-6 0 -7 5 -4 10 3 6 11 10 16 10 6 0 7 -4 4 -10z m-1045 -10 c0 -5 -5 -10 -11
-10 -5 0 -7 5 -4 10 3 6 8 10 11 10 2 0 4 -4 4 -10z m500 6 c0 -3 -4 -8 -10
-11 -5 -3 -10 -1 -10 4 0 6 5 11 10 11 6 0 10 -2 10 -4z m-840 -26 c8 -5 12
-12 9 -15 -8 -8 -39 5 -39 16 0 11 11 11 30 -1z m5830 -70 c0 -5 -4 -10 -10
-10 -5 0 -10 5 -10 10 0 6 5 10 10 10 6 0 10 -4 10 -10z m-5475 -30 c-20 -22
-35 -26 -35 -9 0 5 4 8 9 5 5 -3 14 1 21 9 7 8 15 15 18 15 3 0 -3 -9 -13 -20z
m-95 -10 c0 -5 -5 -10 -11 -10 -5 0 -7 5 -4 10 3 6 8 10 11 10 2 0 4 -4 4 -10z
m105 -32 c3 3 3 -1 0 -9 -3 -9 -12 -16 -20 -16 -8 0 -12 4 -9 9 3 4 0 8 -5 8
-6 0 -11 -5 -11 -11 0 -5 -5 -7 -12 -3 -9 6 -9 9 0 12 7 2 10 8 6 13 -3 5 5 5
19 0 14 -6 28 -7 32 -3z m5405 -7 c0 -6 -4 -13 -10 -16 -5 -3 -10 1 -10 9 0 9
5 16 10 16 6 0 10 -4 10 -9z m220 -10 c0 -5 -9 -7 -20 -4 -11 3 -20 7 -20 9 0
2 9 4 20 4 11 0 20 -4 20 -9z m-7910 -31 c0 -5 -5 -10 -11 -10 -5 0 -7 5 -4
10 3 6 8 10 11 10 2 0 4 -4 4 -10z m7820 6 c0 -3 -4 -8 -10 -11 -5 -3 -10 -1
-10 4 0 6 5 11 10 11 6 0 10 -2 10 -4z m-5520 -27 c0 -5 -4 -9 -10 -9 -5 0
-10 7 -10 16 0 8 5 12 10 9 6 -3 10 -10 10 -16z m40 1 c0 -5 -2 -10 -4 -10 -3
0 -8 5 -11 10 -3 6 -1 10 4 10 6 0 11 -4 11 -10z m5570 -10 c0 -5 -5 -10 -11
-10 -5 0 -7 5 -4 10 3 6 8 10 11 10 2 0 4 -4 4 -10z m-5590 -20 c0 -5 -5 -10
-11 -10 -5 0 -7 5 -4 10 3 6 8 10 11 10 2 0 4 -4 4 -10z m70 -10 c12 -7 10 -9
-8 -7 -12 0 -22 5 -22 9 0 11 12 10 30 -2z m5028 -12 c-6 -18 -25 -20 -31 -3
-5 10 0 15 14 15 12 0 19 -5 17 -12z m472 -3 c0 -8 -4 -15 -9 -15 -13 0 -22
16 -14 24 11 11 23 6 23 -9z m-8320 -5 c0 -5 -7 -10 -15 -10 -8 0 -15 5 -15
10 0 6 7 10 15 10 8 0 15 -4 15 -10z m8390 -30 c0 -5 -2 -10 -4 -10 -3 0 -8 5
-11 10 -3 6 -1 10 4 10 6 0 11 -4 11 -10z m120 0 c0 -5 -4 -10 -10 -10 -5 0
-10 5 -10 10 0 6 5 10 10 10 6 0 10 -4 10 -10z m-530 -14 c0 -3 -4 -8 -10 -11
-5 -3 -10 -1 -10 4 0 6 5 11 10 11 6 0 10 -2 10 -4z m-7180 -16 c0 -5 -4 -10
-10 -10 -5 0 -10 5 -10 10 0 6 5 10 10 10 6 0 10 -4 10 -10z m7640 4 c0 -3 -6
-12 -14 -19 -17 -18 -29 -8 -13 11 12 14 27 18 27 8z m-6216 -29 c3 -8 1 -17
-5 -20 -5 -4 -9 -3 -8 2 3 19 -2 27 -10 15 -7 -11 -9 -11 -14 0 -3 8 2 14 13
15 10 1 21 -5 24 -12z m6132 -12 c-10 -10 -19 5 -10 18 6 11 8 11 12 0 2 -7 1
-15 -2 -18z m-7226 7 c0 -5 -5 -10 -11 -10 -5 0 -7 5 -4 10 3 6 8 10 11 10 2
0 4 -4 4 -10z m1274 -26 c3 -8 2 -12 -4 -9 -6 3 -10 10 -10 16 0 14 7 11 14
-7z m-1859 -14 c0 -8 -8 -16 -17 -18 -13 -2 -18 3 -18 18 0 15 5 20 18 18 9
-2 17 -10 17 -18z m1897 -2 c-7 -7 -12 -8 -12 -2 0 14 12 26 19 19 2 -3 -1
-11 -7 -17z m5733 -18 c3 -5 1 -10 -4 -10 -6 0 -11 5 -11 10 0 6 2 10 4 10 3
0 8 -4 11 -10z m-99 -27 c-7 -7 -26 7 -26 19 0 6 6 6 15 -2 9 -7 13 -15 11
-17z m-6891 7 c-3 -5 -10 -10 -16 -10 -5 0 -9 5 -9 10 0 6 7 10 16 10 8 0 12
-4 9 -10z m6969 -46 c3 -8 2 -12 -4 -9 -6 3 -10 10 -10 16 0 14 7 11 14 -7z
m-5884 -29 c-7 -9 -15 -13 -19 -10 -3 3 1 10 9 15 21 14 24 12 10 -5z m200 -1
c0 -8 -4 -12 -10 -9 -5 3 -10 10 -10 16 0 5 5 9 10 9 6 0 10 -7 10 -16z m5490
-29 c13 -16 6 -35 -15 -35 -18 0 -28 17 -21 35 7 19 20 19 36 0z m-5313 -15
c1 -11 -2 -20 -7 -20 -6 0 -7 17 -1 38 3 8 7 -1 8 -18z m-657 -36 c0 -9 -5
-14 -12 -12 -18 6 -21 28 -4 28 9 0 16 -7 16 -16z m-520 -94 c0 -5 -4 -10 -10
-10 -5 0 -10 5 -10 10 0 6 5 10 10 10 6 0 10 -4 10 -10z m6698 -8 c2 -7 -3
-12 -12 -12 -9 0 -16 7 -16 16 0 17 22 14 28 -4z m73 -75 c-13 -13 -26 -3 -16
12 3 6 11 8 17 5 6 -4 6 -10 -1 -17z m149 18 c0 -7 -30 -13 -34 -7 -3 4 4 9
15 9 10 1 19 0 19 -2z m-435 -14 c3 -5 1 -12 -5 -16 -5 -3 -10 1 -10 9 0 18 6
21 15 7z m105 -1 c0 -5 -4 -10 -10 -10 -5 0 -10 5 -10 10 0 6 5 10 10 10 6 0
10 -4 10 -10z m40 0 c0 -5 -5 -10 -11 -10 -5 0 -7 5 -4 10 3 6 8 10 11 10 2 0
4 -4 4 -10z m-73 -22 c-3 -8 -6 -5 -6 6 -1 11 2 17 5 13 3 -3 4 -12 1 -19z
m-247 -8 c0 -5 -4 -10 -10 -10 -5 0 -10 5 -10 10 0 6 5 10 10 10 6 0 10 -4 10
-10z m295 -10 c3 -5 -1 -10 -10 -10 -9 0 -13 5 -10 10 3 6 8 10 10 10 2 0 7
-4 10 -10z m-6450 -10 c3 -5 -1 -10 -9 -10 -9 0 -16 5 -16 10 0 6 4 10 9 10 6
0 13 -4 16 -10z m175 0 c0 -5 -4 -10 -10 -10 -5 0 -10 5 -10 10 0 6 5 10 10
10 6 0 10 -4 10 -10z m6190 -10 c0 -5 -5 -10 -11 -10 -5 0 -7 5 -4 10 3 6 8
10 11 10 2 0 4 -4 4 -10z m524 -7 c4 -11 1 -11 -14 -3 -24 13 -25 17 -5 17 8
0 16 -6 19 -14z m-394 -53 c0 -5 -4 -10 -10 -10 -5 0 -10 5 -10 10 0 6 5 10
10 10 6 0 10 -4 10 -10z m185 0 c3 -5 1 -10 -4 -10 -6 0 -11 5 -11 10 0 6 2
10 4 10 3 0 8 -4 11 -10z m-6125 -50 c0 -5 -4 -10 -10 -10 -5 0 -10 5 -10 10
0 6 5 10 10 10 6 0 10 -4 10 -10z m-1455 -30 c3 -5 1 -10 -4 -10 -6 0 -11 5
-11 10 0 6 2 10 4 10 3 0 8 -4 11 -10z m7505 0 c0 -5 -4 -10 -10 -10 -5 0 -10
5 -10 10 0 6 5 10 10 10 6 0 10 -4 10 -10z m64 -25 c-4 -8 -8 -15 -10 -15 -2
0 -4 7 -4 15 0 8 4 15 10 15 5 0 7 -7 4 -15z m-7724 -15 c0 -5 -4 -10 -10 -10
-5 0 -10 5 -10 10 0 6 5 10 10 10 6 0 10 -4 10 -10z m1768 -13 c2 -12 -3 -17
-17 -17 -12 0 -21 6 -21 13 0 31 32 34 38 4z m5492 13 c0 -5 -4 -10 -10 -10
-5 0 -10 5 -10 10 0 6 5 10 10 10 6 0 10 -4 10 -10z m467 -32 c-3 -8 -6 -5 -6
6 -1 11 2 17 5 13 3 -3 4 -12 1 -19z m-6107 -48 c0 -5 -7 -10 -16 -10 -8 0
-12 5 -9 10 3 6 10 10 16 10 5 0 9 -4 9 -10z m6160 -21 c0 -14 -27 -10 -33 5
-4 10 0 12 14 9 10 -3 19 -9 19 -14z m-138 -62 c-7 -8 -8 -18 -4 -22 4 -5 1
-5 -5 -1 -7 4 -13 2 -13 -4 0 -6 -5 -8 -11 -4 -8 4 -7 9 2 15 8 5 15 14 15 21
1 7 2 17 3 23 0 5 6 4 13 -3 8 -8 8 -15 0 -25z m-5598 15 c3 -5 -1 -9 -9 -9
-8 0 -12 4 -9 9 3 4 7 8 9 8 2 0 6 -4 9 -8z m3 -38 c0 -7 -4 -11 -9 -8 -4 3
-8 -1 -8 -8 0 -10 -3 -9 -9 2 -11 17 -7 27 12 27 7 0 14 -6 14 -13z m5043 -14
c0 -5 -7 -10 -15 -10 -8 0 -15 5 -15 10 0 6 7 10 15 10 8 0 15 -4 15 -10z
m658 -2 c-2 -7 5 -12 14 -12 10 1 15 -2 12 -7 -5 -9 -34 -13 -34 -5 0 2 -3 11
-6 20 -3 9 -1 16 5 16 6 0 10 -6 9 -12z m-40 -25 c-10 -2 -18 -9 -18 -14 0 -5
-7 -9 -16 -9 -12 0 -14 -3 -6 -13 8 -9 6 -16 -7 -24 -14 -9 -18 -8 -18 3 0 7
5 10 10 7 6 -4 8 1 4 12 -9 21 18 45 48 44 17 -1 17 -2 3 -6z m-5768 -33 c0
-5 -4 -10 -10 -10 -5 0 -10 5 -10 10 0 6 5 10 10 10 6 0 10 -4 10 -10z m5680
-9 c0 -17 -18 -21 -24 -6 -3 9 0 15 9 15 8 0 15 -4 15 -9z m-6130 -11 c0 -5
-7 -10 -15 -10 -8 0 -15 5 -15 10 0 6 7 10 15 10 8 0 15 -4 15 -10z m5610 -15
c0 -8 -4 -15 -10 -15 -5 0 -7 7 -4 15 4 8 8 15 10 15 2 0 4 -7 4 -15z m528
-15 c3 -7 0 -10 -6 -6 -6 3 -16 -2 -22 -11 -11 -17 -11 -17 -6 0 3 9 1 17 -4
17 -6 0 -10 4 -10 10 0 14 43 6 48 -10z m-7298 0 c0 -5 -4 -10 -10 -10 -5 0
-10 5 -10 10 0 6 5 10 10 10 6 0 10 -4 10 -10z m6615 -54 c12 -11 9 -18 -15
-41 -28 -27 -50 -27 -50 0 0 12 15 22 35 23 6 0 9 -4 7 -10 -1 -5 3 -6 9 -3 8
5 8 10 0 18 -12 12 -15 27 -5 27 3 0 12 -6 19 -14z m-5665 -22 c0 -17 -22 -14
-28 4 -2 7 3 12 12 12 9 0 16 -7 16 -16z m-718 -29 c0 -5 -5 -11 -11 -13 -6
-2 -11 4 -11 13 0 9 5 15 11 13 6 -2 11 -8 11 -13z m-132 -5 c0 -5 -2 -10 -4
-10 -3 0 -8 5 -11 10 -3 6 -1 10 4 10 6 0 11 -4 11 -10z m6620 0 c0 -5 -4 -10
-10 -10 -5 0 -10 5 -10 10 0 6 5 10 10 10 6 0 10 -4 10 -10z m168 -7 c-2 -9
-9 -18 -16 -19 -7 -1 -8 0 -2 3 17 8 11 23 -7 17 -15 -5 -16 -4 -3 5 22 15 32
13 28 -6z m-5098 -3 c0 -5 -4 -10 -10 -10 -5 0 -10 5 -10 10 0 6 5 10 10 10 6
0 10 -4 10 -10z m-580 -14 c0 -3 -4 -8 -10 -11 -5 -3 -10 -1 -10 4 0 6 5 11
10 11 6 0 10 -2 10 -4z m-180 -26 c0 -5 -4 -10 -10 -10 -5 0 -10 5 -10 10 0 6
5 10 10 10 6 0 10 -4 10 -10z m5850 -10 c0 -5 -4 -10 -10 -10 -5 0 -10 5 -10
10 0 6 5 10 10 10 6 0 10 -4 10 -10z m647 -4 c0 -8 -8 -17 -17 -19 -9 -2 -17
2 -17 9 0 7 4 11 8 8 4 -2 10 0 14 6 8 14 12 13 12 -4z m-7497 -16 c0 -5 -4
-10 -10 -10 -5 0 -10 5 -10 10 0 6 5 10 10 10 6 0 10 -4 10 -10z m7480 -25
c-7 -8 -17 -15 -23 -15 -6 0 -2 7 9 15 25 19 30 19 14 0z m-230 -5 c0 -5 -4
-10 -10 -10 -5 0 -10 5 -10 10 0 6 5 10 10 10 6 0 10 -4 10 -10z m-5410 -14
c0 -3 -4 -8 -10 -11 -5 -3 -10 -1 -10 4 0 6 5 11 10 11 6 0 10 -2 10 -4z
m4900 -6 c0 -5 -2 -10 -4 -10 -3 0 -8 5 -11 10 -3 6 -1 10 4 10 6 0 11 -4 11
-10z m690 -10 c0 -5 -4 -10 -10 -10 -5 0 -10 5 -10 10 0 6 5 10 10 10 6 0 10
-4 10 -10z m157 -14 c0 -8 -6 -12 -15 -9 -11 5 -11 7 0 14 7 5 13 9 14 9 0 0
1 -6 1 -14z m-6477 -11 c0 -8 -7 -15 -15 -15 -8 0 -15 7 -15 15 0 8 7 15 15
15 8 0 15 -7 15 -15z m5780 5 c10 -7 11 -10 2 -10 -7 0 -17 -11 -22 -25 -9
-24 -50 -37 -50 -15 0 6 6 10 13 10 8 0 7 3 -3 10 -16 10 -15 12 15 28 25 14
26 14 45 2z m-6490 -10 c0 -5 -5 -10 -11 -10 -5 0 -7 5 -4 10 3 6 8 10 11 10
2 0 4 -4 4 -10z m6634 -21 c-2 -4 2 -9 8 -12 7 -2 1 -4 -13 -3 -27 1 -30 23
-4 23 8 0 12 -4 9 -8z m-5339 -29 c3 -5 1 -10 -4 -10 -6 0 -11 5 -11 10 0 6 2
10 4 10 3 0 8 -4 11 -10z m4745 0 c0 -5 -4 -10 -10 -10 -5 0 -10 5 -10 10 0 6
5 10 10 10 6 0 10 -4 10 -10z m1120 -56 c0 -8 -4 -12 -10 -9 -5 3 -10 10 -10
16 0 5 5 9 10 9 6 0 10 -7 10 -16z m-7365 -14 c3 -5 1 -10 -4 -10 -6 0 -11 5
-11 10 0 6 2 10 4 10 3 0 8 -4 11 -10z m7130 -20 c3 -5 -1 -10 -9 -10 -9 0
-16 5 -16 10 0 6 4 10 9 10 6 0 13 -4 16 -10z m-1025 -4 c0 -3 -4 -8 -10 -11
-5 -3 -10 -1 -10 4 0 6 5 11 10 11 6 0 10 -2 10 -4z m1133 -40 c-3 -4 -9 -2
-14 5 -13 22 -11 31 5 17 8 -7 12 -17 9 -22z m-6633 4 c0 -5 -4 -10 -10 -10
-5 0 -10 5 -10 10 0 6 5 10 10 10 6 0 10 -4 10 -10z m890 -30 c-20 -13 -33
-13 -25 0 3 6 14 10 23 10 15 0 15 -2 2 -10z m5850 0 c0 -5 -7 -10 -16 -10 -8
0 -12 5 -9 10 3 6 10 10 16 10 5 0 9 -4 9 -10z m-5880 -40 c0 -5 -7 -10 -16
-10 -8 0 -12 5 -9 10 3 6 10 10 16 10 5 0 9 -4 9 -10z m-1580 -10 c0 -5 -2
-10 -4 -10 -3 0 -8 5 -11 10 -3 6 -1 10 4 10 6 0 11 -4 11 -10z m6190 0 c0 -5
-4 -10 -10 -10 -5 0 -10 5 -10 10 0 6 5 10 10 10 6 0 10 -4 10 -10z m65 1 c3
-5 1 -12 -5 -16 -5 -3 -10 1 -10 9 0 18 6 21 15 7z m-5104 -34 c-13 -13 -26
-3 -16 12 3 6 11 8 17 5 6 -4 6 -10 -1 -17z"/>
<path d="M8121 4414 c0 -11 3 -14 6 -6 3 7 2 16 -1 19 -3 4 -6 -2 -5 -13z"/>
<path d="M7435 4030 c-10 -11 -22 -17 -26 -14 -5 3 -9 1 -9 -4 0 -10 23 -22
41 -22 5 0 9 5 9 11 0 5 -5 7 -12 3 -7 -4 -8 -3 -4 5 4 6 11 9 16 6 5 -3 12 0
16 6 5 8 3 9 -6 4 -10 -6 -12 -4 -7 8 8 22 4 21 -18 -3z"/>
<path d="M7358 3993 c7 -3 16 -2 19 1 4 3 -2 6 -13 5 -11 0 -14 -3 -6 -6z"/>
<path d="M4374 2994 c9 -8 13 -20 10 -26 -4 -7 -2 -8 4 -4 14 8 -2 46 -19 46
-6 0 -3 -7 5 -16z"/>
<path d="M4335 2981 c-7 -12 12 -24 25 -16 6 3 10 12 9 18 0 9 -2 9 -6 0 -2
-7 -9 -13 -14 -13 -6 0 -7 5 -4 10 3 6 4 10 1 10 -3 0 -7 -4 -11 -9z"/>
<path d="M4810 2955 c0 -5 5 -17 10 -25 5 -8 10 -10 10 -5 0 6 -5 17 -10 25
-5 8 -10 11 -10 5z"/>
<path d="M4693 2925 c0 -8 4 -12 9 -9 5 3 6 10 3 15 -9 13 -12 11 -12 -6z"/>
<path d="M7635 509 c-10 -15 3 -25 16 -12 7 7 7 13 1 17 -6 3 -14 1 -17 -5z"/>
<path d="M7090 3365 c-10 -12 -10 -15 4 -15 9 0 16 7 16 15 0 8 -2 15 -4 15
-2 0 -9 -7 -16 -15z"/>
<path d="M6985 3350 c-8 -13 4 -50 16 -50 6 0 7 5 4 10 -3 6 0 10 8 10 8 0 17
7 21 15 4 13 2 13 -14 5 -23 -12 -41 -13 -21 -1 8 5 9 11 3 15 -6 3 -13 2 -17
-4z"/>
<path d="M7030 3290 c0 -5 5 -10 11 -10 5 0 7 5 4 10 -3 6 -8 10 -11 10 -2 0
-4 -4 -4 -10z"/>
<path d="M7035 3250 c-8 -13 5 -13 25 0 13 8 13 10 -2 10 -9 0 -20 -4 -23 -10z"/>
<path d="M7166 3223 c-6 -14 -5 -15 5 -6 7 7 10 15 7 18 -3 3 -9 -2 -12 -12z"/>
<path d="M7444 3218 c1 -6 18 -22 37 -34 27 -17 36 -19 36 -8 0 8 -6 14 -14
14 -7 0 -13 4 -13 10 0 5 -7 7 -15 4 -11 -5 -14 -1 -9 12 4 14 3 16 -4 5 -7
-9 -11 -10 -15 -2 -4 8 -5 8 -3 -1z"/>
<path d="M7120 3188 c0 -3 9 -6 20 -5 11 1 20 5 20 9 0 3 -9 6 -20 5 -11 -1
-20 -5 -20 -9z"/>
<path d="M7534 3185 c-6 -15 2 -35 15 -35 5 0 11 9 14 21 4 17 3 18 -9 8 -12
-10 -13 -9 -8 5 3 9 3 16 0 16 -4 0 -9 -7 -12 -15z"/>
<path d="M7040 3169 c-9 -16 -14 -18 -26 -8 -8 6 -14 7 -14 1 0 -21 29 -34 56
-25 24 8 25 10 11 25 -9 8 -13 18 -10 22 4 3 3 6 0 6 -3 0 -11 -9 -17 -21z"/>
<path d="M8084 3155 c3 -8 1 -15 -4 -15 -6 0 -10 -7 -10 -15 0 -8 6 -12 15
-10 8 3 22 7 30 10 13 4 13 8 3 25 -15 23 -43 28 -34 5z"/>
<path d="M7531 3124 c0 -11 3 -14 6 -6 3 7 2 16 -1 19 -3 4 -6 -2 -5 -13z"/>
<path d="M8550 3113 c0 -4 5 -15 10 -23 8 -13 10 -13 10 2 0 9 -4 20 -10 23
-5 3 -10 3 -10 -2z"/>
<path d="M8090 3099 c0 -7 -7 -17 -16 -24 -15 -10 -14 -12 7 -10 17 1 23 7 21
20 -2 11 1 14 9 9 8 -4 10 -3 5 4 -9 15 -26 15 -26 1z"/>
<path d="M7936 3093 c-4 -4 -11 -8 -14 -9 -4 0 -18 -6 -32 -13 l-25 -11 25 4
c14 3 37 0 50 -7 14 -7 36 -10 50 -7 14 4 30 3 37 -2 7 -5 14 -5 18 2 4 6 3
10 -2 9 -20 -3 -27 2 -13 11 12 8 10 9 -7 7 -12 -2 -26 -6 -29 -10 -13 -12
-22 -8 -20 10 1 18 -25 29 -38 16z"/>
<path d="M8530 3088 c0 -9 7 -19 16 -22 15 -6 15 -4 3 11 -7 10 -15 20 -16 22
-2 2 -3 -3 -3 -11z"/>
<path d="M7040 3059 c0 -5 13 -9 30 -9 17 0 33 -7 39 -17 9 -16 10 -15 8 4 0
12 -3 21 -5 19 -1 -2 -19 0 -38 4 -19 4 -34 4 -34 -1z"/>
<path d="M5310 3050 c-8 -5 -10 -10 -5 -10 6 0 17 5 25 10 8 5 11 10 5 10 -5
0 -17 -5 -25 -10z"/>
<path d="M7415 3050 c3 -5 11 -10 16 -10 6 0 7 5 4 10 -3 6 -11 10 -16 10 -6
0 -7 -4 -4 -10z"/>
<path d="M8070 3046 c0 -2 7 -7 16 -10 8 -3 12 -2 9 4 -6 10 -25 14 -25 6z"/>
<path d="M7050 3036 c0 -2 7 -9 15 -16 9 -7 15 -8 15 -2 0 5 -7 12 -15 16 -8
3 -15 4 -15 2z"/>
<path d="M7395 3022 c1 -9 -11 -29 -27 -45 -30 -28 -34 -57 -9 -65 8 -3 11 0
7 6 -4 6 6 19 21 29 15 10 34 23 41 30 8 7 19 10 25 6 8 -5 8 -2 0 9 -7 8 -10
17 -7 21 3 3 -4 3 -17 0 -14 -4 -20 -2 -16 4 4 6 1 13 -7 16 -9 4 -13 0 -11
-11z"/>
<path d="M6776 2986 c21 -15 30 -14 19 3 -3 6 -14 11 -23 11 -13 0 -13 -2 4
-14z"/>
<path d="M7000 2993 l-25 -5 30 -13 c29 -13 29 -14 8 -20 -13 -4 -23 -11 -23
-15 0 -4 20 0 44 8 l44 16 -23 18 c-13 10 -25 17 -27 17 -1 -1 -14 -4 -28 -6z"/>
<path d="M7272 2962 c4 -15 2 -19 -8 -15 -10 4 -12 0 -8 -11 3 -9 12 -16 20
-16 17 0 19 46 2 56 -7 5 -9 0 -6 -14z"/>
<path d="M7670 2946 c0 -9 -17 -20 -40 -27 -22 -7 -40 -18 -40 -26 0 -7 -7
-13 -16 -13 -8 0 -12 -5 -9 -10 4 -6 -3 -9 -16 -7 -12 2 -32 -6 -48 -20 -14
-14 -33 -31 -42 -39 -9 -8 -16 -20 -16 -28 0 -9 7 -12 16 -8 9 3 13 2 10 -2
-7 -7 53 -71 82 -87 13 -6 25 -6 37 2 27 17 46 7 65 -33 9 -19 25 -42 36 -52
10 -10 22 -28 25 -42 7 -25 20 -31 31 -14 4 7 14 6 28 -2 12 -7 26 -11 31 -10
4 2 33 3 62 3 34 1 54 5 54 13 0 7 3 8 8 1 4 -6 13 -10 20 -9 6 1 19 2 28 3
10 1 13 7 10 19 -10 33 -16 103 -8 98 4 -2 14 0 22 6 12 8 11 9 -4 4 -14 -5
-17 -2 -12 10 6 15 4 15 -11 3 -9 -8 -14 -9 -10 -3 4 6 0 37 -8 68 -8 31 -15
65 -15 75 0 17 -29 51 -41 48 -11 -3 -58 37 -53 45 3 4 -2 5 -10 2 -8 -3 -24
4 -35 15 -18 18 -25 19 -43 10 -12 -7 -23 -7 -27 -2 -3 6 -18 13 -33 17 -21 5
-28 3 -28 -8z m44 -21 c-7 -16 -24 -21 -24 -6 0 8 7 13 27 20 1 1 0 -6 -3 -14z
m146 -105 c0 -5 -4 -10 -10 -10 -5 0 -10 5 -10 10 0 6 5 10 10 10 6 0 10 -4
10 -10z m-333 -16 c-3 -3 -12 -4 -19 -1 -8 3 -5 6 6 6 11 1 17 -2 13 -5z m113
-4 c0 -5 -5 -10 -11 -10 -5 0 -7 5 -4 10 3 6 8 10 11 10 2 0 4 -4 4 -10z m67
-55 c-5 -11 -13 -11 -42 -3 l-35 11 26 18 c24 15 29 16 41 3 8 -8 13 -21 10
-29z m213 35 c0 -5 -2 -10 -4 -10 -3 0 -8 5 -11 10 -3 6 -1 10 4 10 6 0 11 -4
11 -10z m-401 -33 c15 -19 2 -29 -15 -12 -8 7 -14 16 -14 19 0 11 17 6 29 -7z
m221 -41 c0 -2 -7 -7 -16 -10 -8 -3 -12 -2 -9 4 6 10 25 14 25 6z m147 -149
c0 -7 -13 -14 -29 -15 -18 -2 -27 2 -23 8 3 6 11 8 16 5 5 -4 9 -1 9 4 0 6 6
11 13 11 8 0 14 -6 14 -13z"/>
<path d="M7301 2908 c-25 -26 -19 -38 7 -15 10 10 22 14 25 10 4 -3 7 -1 7 5
0 22 -19 22 -39 0z"/>
<path d="M4174 2908 c3 -10 2 -18 -3 -18 -4 0 -8 -7 -8 -14 0 -11 7 -9 23 7
13 12 24 27 24 32 0 6 -5 3 -10 -5 -9 -13 -11 -13 -21 0 -9 13 -10 12 -5 -2z"/>
<path d="M5045 2900 c3 -5 10 -10 16 -10 5 0 9 5 9 10 0 6 -7 10 -16 10 -8 0
-12 -4 -9 -10z"/>
<path d="M7520 2901 c0 -6 4 -13 10 -16 6 -3 7 1 4 9 -7 18 -14 21 -14 7z"/>
<path d="M8327 2899 c7 -7 15 -10 18 -7 3 3 -2 9 -12 12 -14 6 -15 5 -6 -5z"/>
<path d="M6975 2890 c-17 -8 -17 -9 7 -7 15 1 24 5 22 9 -3 4 -6 8 -7 7 -1 0
-11 -4 -22 -9z"/>
<path d="M5166 2873 c-6 -14 -5 -15 5 -6 7 7 10 15 7 18 -3 3 -9 -2 -12 -12z"/>
<path d="M8310 2886 c0 -2 7 -9 15 -16 9 -7 15 -8 15 -2 0 5 -7 12 -15 16 -8
3 -15 4 -15 2z"/>
<path d="M5060 2848 c0 -4 4 -8 9 -8 6 0 12 4 15 8 3 5 -1 9 -9 9 -8 0 -15 -4
-15 -9z"/>
<path d="M4090 2840 c0 -5 5 -10 10 -10 6 0 10 5 10 10 0 6 -4 10 -10 10 -5 0
-10 -4 -10 -10z"/>
<path d="M4144 2824 c3 -9 6 -18 6 -20 0 -2 7 -4 15 -4 19 0 19 7 1 26 -19 19
-30 18 -22 -2z"/>
<path d="M8300 2829 c0 -5 5 -7 10 -4 6 3 10 8 10 11 0 2 -4 4 -10 4 -5 0 -10
-5 -10 -11z"/>
<path d="M4286 2816 c5 -12 2 -15 -10 -10 -20 7 -21 -6 -3 -31 14 -18 43 -13
31 6 -3 5 -9 7 -14 4 -5 -3 -12 0 -16 6 -4 7 -3 9 2 6 6 -3 16 -2 22 2 10 6 9
11 -3 21 -13 11 -14 10 -9 -4z"/>
<path d="M6635 2771 c-3 -5 -1 -12 5 -16 5 -3 10 1 10 9 0 18 -6 21 -15 7z"/>
<path d="M7207 2773 c-9 -3 -15 -8 -12 -13 3 -5 -4 -15 -14 -22 -23 -16 -18
-63 5 -54 8 3 14 0 14 -7 0 -8 4 -6 10 3 5 8 10 11 10 5 0 -20 34 41 36 65 2
26 -10 32 -49 23z"/>
<path d="M3984 2757 c-3 -10 -4 -21 0 -24 3 -4 6 -2 6 4 0 6 9 9 20 6 12 -3
20 0 20 6 0 7 -5 9 -11 5 -6 -3 -15 0 -20 7 -6 11 -9 10 -15 -4z"/>
<path d="M6661 2766 c2 -2 15 -9 29 -16 23 -12 24 -12 11 3 -7 10 -20 17 -29
17 -8 0 -13 -2 -11 -4z"/>
<path d="M6673 2711 c-5 -20 -35 -23 -62 -6 -11 6 -13 1 -7 -25 8 -40 5 -37
36 -41 28 -4 31 0 40 54 8 38 2 52 -7 18z"/>
<path d="M6699 2708 c-8 -27 -5 -36 9 -30 10 4 12 7 4 10 -7 2 -10 8 -6 13 3
5 3 9 0 9 -3 0 -6 -1 -7 -2z"/>
<path d="M7567 2623 c-15 -4 -17 -11 -12 -31 3 -15 13 -33 22 -39 11 -8 12
-13 5 -13 -10 0 -10 -3 0 -14 15 -16 31 -11 22 7 -3 7 6 -1 21 -17 l27 -29
-24 -13 -23 -13 23 2 c14 1 27 11 34 28 7 15 17 25 23 22 5 -4 0 5 -12 19 -13
13 -23 32 -23 41 0 9 -7 17 -15 17 -8 0 -15 6 -15 14 0 11 -26 30 -33 25 -1
-1 -10 -3 -20 -6z m98 -93 c3 -5 -1 -10 -10 -10 -9 0 -13 5 -10 10 3 6 8 10
10 10 2 0 7 -4 10 -10z"/>
<path d="M6017 2599 c7 -7 15 -10 18 -7 3 3 -2 9 -12 12 -14 6 -15 5 -6 -5z"/>
<path d="M6023 2565 c0 -8 4 -15 9 -15 4 0 8 4 8 9 0 6 -4 12 -8 15 -5 3 -9
-1 -9 -9z"/>
<path d="M4503 2553 c-34 -4 -42 -16 -21 -29 6 -4 8 -3 4 4 -4 7 2 10 15 9 29
-2 41 -28 21 -47 -14 -13 -15 -12 -9 3 7 19 -9 24 -16 5 -4 -10 -8 -10 -16 1
-8 12 -11 9 -17 -13 -5 -20 -9 -24 -15 -14 -7 10 -9 9 -9 -4 0 -9 -7 -21 -15
-25 -13 -8 -13 -13 3 -44 10 -19 23 -34 30 -31 7 2 12 -6 12 -19 0 -12 7 -31
17 -41 9 -11 11 -18 5 -18 -7 0 -12 -5 -12 -11 0 -5 5 -7 10 -4 6 3 10 2 10
-4 0 -5 -5 -11 -12 -13 -6 -2 -12 -15 -13 -29 -1 -17 -8 -24 -22 -24 -30 0
-36 -10 -16 -26 17 -13 17 -12 4 4 -13 17 -12 18 12 12 27 -7 32 -1 28 33 -1
6 5 12 14 12 8 0 15 -5 15 -11 0 -5 4 -8 9 -4 5 3 12 1 15 -4 3 -4 -4 -8 -17
-7 -18 1 -23 -5 -25 -32 -3 -27 1 -34 24 -42 15 -6 35 -8 43 -4 26 11 62 13
56 4 -3 -5 -13 -7 -23 -4 -9 2 -5 -2 10 -9 20 -9 25 -16 18 -23 -8 -8 2 -19
29 -37 36 -24 39 -30 31 -51 -7 -20 -5 -25 13 -31 12 -4 30 -8 40 -8 12 0 16
-5 13 -14 -4 -9 -1 -13 6 -10 7 2 12 12 10 22 -3 14 1 16 22 11 16 -4 26 -2
26 4 0 6 5 8 11 5 6 -4 8 -14 5 -22 -6 -13 -3 -13 18 1 16 10 27 12 31 6 4 -6
1 -9 -6 -8 -6 2 -14 -3 -16 -10 -6 -15 43 1 67 23 21 19 66 14 67 -7 1 -10 -3
-18 -10 -18 -8 0 -8 -3 0 -11 6 -6 9 -19 6 -28 -4 -13 -2 -13 7 2 13 20 32 23
24 4 -4 -11 4 -12 43 -5 72 12 75 13 85 31 5 10 13 15 19 12 5 -4 9 -1 9 5 0
6 5 8 10 5 18 -11 11 4 -12 25 -12 11 -18 23 -13 27 4 5 10 2 12 -4 3 -7 10
-13 16 -13 6 0 19 -8 30 -17 19 -17 20 -17 8 4 -14 27 -14 33 1 33 6 0 8 -3 5
-7 -4 -3 3 -18 15 -31 13 -14 18 -22 12 -19 -6 3 -11 0 -11 -8 0 -11 4 -12 13
-4 11 9 47 -3 64 -22 3 -3 20 -11 37 -18 18 -7 30 -17 27 -22 -9 -15 3 -10 21
7 9 9 19 13 23 9 4 -4 1 -10 -5 -12 -29 -10 -11 -39 21 -34 4 1 14 -3 21 -9 8
-7 21 -7 38 -1 16 6 28 6 35 -1 8 -8 18 -8 34 0 l23 12 -22 -6 c-13 -3 -23 -1
-23 5 0 6 6 11 13 12 6 0 3 4 -8 9 -11 5 -15 9 -9 9 16 1 24 37 11 50 -6 6 -7
14 -3 18 4 4 11 1 16 -7 7 -11 12 -11 23 -2 7 7 16 10 18 7 3 -2 6 8 7 22 1
14 7 32 12 39 13 14 -3 29 -20 19 -5 -3 -7 0 -4 9 3 8 1 23 -5 33 -6 10 -11
12 -11 6 0 -18 -20 -16 -20 2 0 8 -5 14 -12 12 -7 -1 -12 8 -13 21 0 12 -6 27
-14 31 -8 5 -10 14 -6 21 5 9 4 11 -3 6 -7 -4 -12 -2 -12 4 0 6 -4 9 -8 6 -5
-3 -19 1 -33 8 -44 22 -61 27 -53 13 5 -8 2 -7 -9 2 -11 9 -17 10 -17 2 0 -8
-5 -8 -19 1 -11 6 -18 20 -16 29 2 10 -1 16 -8 14 -10 -4 -91 -12 -144 -14
-20 -1 -15 -31 5 -32 11 0 12 -2 4 -6 -10 -4 -9 -9 5 -19 16 -12 16 -13 1 -8
-13 4 -16 1 -13 -15 2 -12 -1 -21 -8 -21 -8 0 -8 -3 1 -9 10 -6 10 -10 -2 -21
-9 -7 -22 -10 -29 -7 -8 3 -20 1 -28 -5 -11 -8 -11 -9 3 -4 10 3 20 0 24 -6 4
-7 3 -8 -4 -4 -7 4 -12 2 -12 -5 0 -7 -10 -3 -23 9 -19 18 -26 19 -37 9 -10
-9 -12 -9 -6 1 4 6 2 12 -4 12 -6 0 -9 4 -6 8 2 4 -4 8 -14 9 -11 1 -22 -2
-25 -8 -4 -5 -11 -9 -16 -9 -6 0 -7 5 -3 11 4 8 0 8 -15 0 -12 -7 -20 -8 -19
-4 3 14 -22 92 -32 98 -6 3 -15 15 -21 27 -7 12 -7 18 -1 14 6 -3 12 -1 14 6
5 15 -51 120 -62 113 -8 -5 -40 54 -40 75 0 6 -4 8 -10 5 -5 -3 -10 0 -10 7 0
11 -2 10 -9 0 -7 -11 -16 -11 -48 -2 -31 9 -45 10 -62 1 -29 -16 -39 -7 -34
26 3 20 2 24 -5 14 -6 -8 -15 -10 -22 -6 -9 5 -11 4 -6 -3 8 -14 -5 -16 -19
-4 -14 12 -65 32 -65 26 0 -3 15 -12 33 -20 l32 -15 -30 6 c-33 7 -58 32 -51
52 3 7 4 12 3 11 -1 0 -17 -3 -34 -5z m114 -79 c-3 -3 -12 -4 -19 -1 -8 3 -5
6 6 6 11 1 17 -2 13 -5z m-92 -94 c3 -5 -1 -10 -9 -10 -9 0 -16 5 -16 10 0 6
4 10 9 10 6 0 13 -4 16 -10z m305 -159 c0 -6 -4 -13 -10 -16 -5 -3 -10 1 -10
9 0 9 5 16 10 16 6 0 10 -4 10 -9z m645 -61 c3 -5 1 -10 -4 -10 -6 0 -11 5
-11 10 0 6 2 10 4 10 3 0 8 -4 11 -10z m-532 -54 c3 3 3 -4 0 -15 -6 -22 -30
-24 -25 -2 1 6 -2 11 -8 11 -5 0 -10 5 -10 10 0 7 6 7 19 1 10 -6 21 -8 24 -5z
m77 0 c0 -2 -7 -7 -16 -10 -8 -3 -12 -2 -9 4 6 10 25 14 25 6z m25 -15 c3 -5
2 -12 -3 -15 -5 -3 -9 1 -9 9 0 17 3 19 12 6z m171 -4 c4 -4 -2 -7 -14 -7 -12
0 -22 4 -22 9 0 10 26 9 36 -2z m-296 -42 c-7 -9 -15 -13 -17 -11 -7 7 7 26
19 26 6 0 6 -6 -2 -15z m390 5 c0 -5 -2 -10 -4 -10 -3 0 -8 5 -11 10 -3 6 -1
10 4 10 6 0 11 -4 11 -10z m-364 -25 c-9 -9 -16 -13 -16 -8 0 12 22 34 28 28
2 -2 -3 -11 -12 -20z m54 15 c0 -5 -4 -10 -10 -10 -5 0 -10 5 -10 10 0 6 5 10
10 10 6 0 10 -4 10 -10z m90 -30 c0 -13 -29 -20 -36 -8 -5 7 -2 8 6 3 10 -6
12 -4 7 8 -4 11 -2 14 9 10 7 -3 14 -9 14 -13z m340 -20 c0 -5 -4 -10 -10 -10
-5 0 -10 5 -10 10 0 6 5 10 10 10 6 0 10 -4 10 -10z m-401 -23 c8 -10 7 -14
-2 -14 -8 0 -14 6 -14 14 0 7 1 13 2 13 2 0 8 -6 14 -13z m441 3 c0 -5 -8 -10
-17 -10 -15 0 -16 2 -3 10 19 12 20 12 20 0z m-343 -22 c-3 -8 -6 -5 -6 6 -1
11 2 17 5 13 3 -3 4 -12 1 -19z m353 -8 c0 -5 -4 -10 -9 -10 -6 0 -13 5 -16
10 -3 6 1 10 9 10 9 0 16 -4 16 -10z m-85 -10 c3 -5 1 -10 -4 -10 -6 0 -11 5
-11 10 0 6 2 10 4 10 3 0 8 -4 11 -10z"/>
<path d="M6181 2514 c0 -11 3 -14 6 -6 3 7 2 16 -1 19 -3 4 -6 -2 -5 -13z"/>
<path d="M7920 2519 c-24 -7 -24 -10 3 -13 6 -1 11 -8 9 -14 -2 -10 3 -10 17
-2 13 7 22 7 26 0 3 -5 12 -10 18 -10 7 0 6 4 -3 10 -8 5 -11 10 -5 10 13 0
-12 23 -27 25 -7 1 -24 -2 -38 -6z"/>
<path d="M5060 2510 c0 -5 5 -10 10 -10 6 0 10 5 10 10 0 6 -4 10 -10 10 -5 0
-10 -4 -10 -10z"/>
<path d="M7868 2513 c7 -3 16 -2 19 1 4 3 -2 6 -13 5 -11 0 -14 -3 -6 -6z"/>
<path d="M3788 2493 c7 -3 16 -2 19 1 4 3 -2 6 -13 5 -11 0 -14 -3 -6 -6z"/>
<path d="M3980 2490 c-8 -5 -10 -10 -5 -10 6 0 17 5 25 10 8 5 11 10 5 10 -5
0 -17 -5 -25 -10z"/>
<path d="M4685 2490 c3 -5 8 -10 11 -10 2 0 4 5 4 10 0 6 -5 10 -11 10 -5 0
-7 -4 -4 -10z"/>
<path d="M5145 2490 c-16 -7 -17 -9 -3 -9 9 -1 20 4 23 9 7 11 7 11 -20 0z"/>
<path d="M6160 2494 c0 -2 9 -8 20 -14 11 -6 20 -7 20 -2 0 6 -9 12 -20 15
-11 3 -20 3 -20 1z"/>
<path d="M7738 2488 c-16 -5 -28 -14 -28 -19 0 -6 -4 -7 -10 -4 -15 9 -12 -2
6 -19 8 -9 10 -16 4 -16 -8 0 -8 -6 0 -20 11 -20 40 -28 40 -11 0 5 18 11 40
15 22 3 40 11 40 16 0 6 6 9 13 8 27 -6 10 28 -23 44 -40 20 -45 20 -82 6z
m10 -38 c-2 -6 -8 -6 -18 0 -13 9 -13 11 0 20 15 10 25 0 18 -20z"/>
<path d="M5080 2476 c0 -20 22 -56 35 -56 19 0 20 19 0 26 -8 4 -15 12 -15 20
0 8 -4 14 -10 14 -5 0 -10 -2 -10 -4z"/>
<path d="M7871 2443 c0 -6 -4 -20 -7 -30 -5 -14 -4 -15 5 -7 7 7 11 20 8 30
-3 11 -5 14 -6 7z"/>
<path d="M8136 2398 c3 -5 10 -6 15 -3 13 9 11 12 -6 12 -8 0 -12 -4 -9 -9z"/>
<path d="M3760 2370 c6 -11 13 -20 16 -20 2 0 0 9 -6 20 -6 11 -13 20 -16 20
-2 0 0 -9 6 -20z"/>
<path d="M4297 2359 c7 -7 15 -10 18 -7 3 3 -2 9 -12 12 -14 6 -15 5 -6 -5z"/>
<path d="M5120 2328 c0 -23 22 -58 37 -58 3 0 18 8 34 17 33 20 35 47 3 49
-12 1 -26 4 -32 8 -6 3 -14 1 -18 -5 -4 -8 -9 -7 -15 2 -6 10 -9 6 -9 -13z"/>
<path d="M3806 2303 c-6 -14 -5 -15 5 -6 7 7 10 15 7 18 -3 3 -9 -2 -12 -12z"/>
<path d="M5246 2298 c3 -4 9 -8 15 -8 5 0 9 4 9 8 0 5 -7 9 -15 9 -8 0 -12 -4
-9 -9z"/>
<path d="M4967 2262 c3 -7 9 -10 12 -5 3 4 10 11 15 15 4 4 -1 6 -12 5 -12 -1
-18 -6 -15 -15z"/>
<path d="M3860 2254 c0 -20 27 -37 36 -23 4 7 3 9 -4 5 -6 -3 -15 2 -21 11 -6
10 -11 13 -11 7z"/>
<path d="M4940 2256 c0 -2 7 -9 15 -16 13 -11 14 -10 9 4 -5 14 -24 23 -24 12z"/>
<path d="M4987 2175 c-4 -8 -2 -17 3 -20 6 -4 10 1 10 10 0 9 5 13 10 10 6 -3
10 -1 10 4 0 16 -27 13 -33 -4z"/>
<path d="M5030 2176 c0 -9 5 -16 10 -16 6 0 10 4 10 9 0 6 -4 13 -10 16 -5 3
-10 -1 -10 -9z"/>
<path d="M8452 2128 c-17 -13 -34 -31 -38 -41 -5 -15 -8 -16 -22 -5 -10 7 -14
8 -10 4 4 -5 3 -15 -3 -22 -8 -10 -7 -17 4 -29 10 -9 18 -11 22 -5 3 5 1 10
-5 10 -6 0 -8 5 -4 11 3 6 15 9 25 6 11 -3 17 -2 14 3 -3 4 2 14 11 21 14 11
49 69 42 69 -2 0 -18 -10 -36 -22z"/>
<path d="M3180 2011 c0 -13 26 -32 33 -24 8 7 -11 33 -24 33 -5 0 -9 -4 -9 -9z"/>
<path d="M4120 1995 c0 -5 5 -17 10 -25 5 -8 10 -10 10 -5 0 6 -5 17 -10 25
-5 8 -10 11 -10 5z"/>
<path d="M4148 1973 c5 -21 7 -23 10 -9 2 10 0 22 -6 28 -6 6 -7 0 -4 -19z"/>
<path d="M4780 1970 c0 -5 5 -10 11 -10 5 0 7 5 4 10 -3 6 -8 10 -11 10 -2 0
-4 -4 -4 -10z"/>
<path d="M4121 1932 c-6 -12 -11 -27 -11 -34 0 -7 7 0 15 16 9 16 13 31 11 33
-2 3 -9 -4 -15 -15z"/>
<path d="M2325 1890 c-8 -13 14 -52 26 -45 5 4 9 8 9 11 0 3 -4 3 -9 0 -11 -7
-23 22 -15 35 3 5 3 9 0 9 -3 0 -8 -4 -11 -10z"/>
<path d="M2350 1891 c0 -6 4 -13 10 -16 6 -3 7 1 4 9 -7 18 -14 21 -14 7z"/>
<path d="M2956 1885 c-11 -8 -15 -15 -9 -15 6 0 16 7 23 15 16 19 11 19 -14 0z"/>
<path d="M2994 1888 c-4 -6 -2 -14 5 -16 9 -3 9 -7 0 -18 -10 -12 -14 -12 -20
-2 -7 10 -9 9 -9 -4 0 -23 13 -23 34 1 12 13 14 21 6 26 -5 3 -8 11 -5 16 4 5
4 9 1 9 -3 0 -8 -5 -12 -12z"/>
<path d="M2965 1811 c-3 -5 -2 -12 3 -15 5 -3 9 1 9 9 0 17 -3 19 -12 6z"/>
<path d="M3096 1807 c3 -10 9 -15 12 -12 3 3 0 11 -7 18 -10 9 -11 8 -5 -6z"/>
<path d="M8020 1810 c0 -5 5 -10 11 -10 5 0 7 5 4 10 -3 6 -8 10 -11 10 -2 0
-4 -4 -4 -10z"/>
<path d="M3050 1771 c0 -6 4 -13 10 -16 6 -3 7 1 4 9 -7 18 -14 21 -14 7z"/>
<path d="M8018 1773 c6 -2 18 -2 25 0 6 3 1 5 -13 5 -14 0 -19 -2 -12 -5z"/>
<path d="M2988 1763 c7 -3 16 -2 19 1 4 3 -2 6 -13 5 -11 0 -14 -3 -6 -6z"/>
<path d="M3021 1744 c0 -11 3 -14 6 -6 3 7 2 16 -1 19 -3 4 -6 -2 -5 -13z"/>
<path d="M3090 1748 c6 -7 4 -15 -5 -22 -11 -8 -12 -15 -4 -26 9 -12 10 -12 5
4 -5 13 -2 17 8 13 17 -7 15 19 -2 33 -9 7 -9 7 -2 -2z"/>
<path d="M3105 1691 c-3 -5 -2 -12 3 -15 5 -3 9 1 9 9 0 17 -3 19 -12 6z"/>
<path d="M3064 1682 c3 -5 0 -13 -6 -15 -9 -4 -10 -6 -1 -6 17 -1 25 16 12 25
-7 4 -9 3 -5 -4z"/>
<path d="M7950 1600 c0 -5 5 -10 11 -10 5 0 7 5 4 10 -3 6 -8 10 -11 10 -2 0
-4 -4 -4 -10z"/>
<path d="M7956 1274 c-5 -14 -4 -15 9 -4 17 14 19 20 6 20 -5 0 -12 -7 -15
-16z"/>
<path d="M3190 547 c-8 -8 1 -97 9 -97 4 0 5 17 3 38 -5 57 -7 64 -12 59z"/>
<path d="M8470 256 c0 -2 7 -7 16 -10 8 -3 12 -2 9 4 -6 10 -25 14 -25 6z"/>
<path d="M8380 215 c-7 -9 -11 -17 -9 -20 3 -2 10 5 17 15 14 24 10 26 -8 5z"/>
<path d="M8497 198 c2 -5 10 -8 18 -8 8 0 16 3 18 8 3 4 -5 7 -18 7 -13 0 -21
-3 -18 -7z"/>
<path d="M5370 160 c-12 -7 -10 -9 7 -7 12 0 19 5 17 9 -6 10 -6 10 -24 -2z"/>
<path d="M5320 146 c0 -8 -7 -22 -16 -30 -8 -9 -11 -16 -6 -16 6 0 8 -9 5 -20
-4 -16 -2 -19 11 -14 9 3 17 10 17 15 1 5 3 14 4 19 1 6 3 14 4 19 0 5 11 12
24 14 18 4 17 4 -6 6 -16 0 -26 5 -22 11 3 6 1 10 -4 10 -6 0 -11 -6 -11 -14z"/>
<path d="M4979 53 c-13 -16 -12 -17 4 -4 16 13 21 21 13 21 -2 0 -10 -8 -17
-17z"/>
<path d="M5675 46 c-16 -13 -28 -27 -25 -29 3 -3 21 7 39 24 40 35 29 39 -14
5z"/>
<path d="M5055 20 c-4 -6 -11 -8 -16 -5 -5 4 -9 1 -9 -4 0 -14 17 -14 25 -1 4
6 11 7 17 4 7 -4 8 -2 4 4 -9 15 -13 15 -21 2z"/>
</g>
</svg>
